<svg version="1.1" viewBox="0.0 0.0 960.0 720.0" fill="none" stroke="none" stroke-linecap="square" stroke-miterlimit="10" xmlns:xlink="http://www.w3.org/1999/xlink" xmlns="http://www.w3.org/2000/svg"><clipPath id="p.0"><path d="m0 0l960.0 0l0 720.0l-960.0 0l0 -720.0z" clip-rule="nonzero"/></clipPath><g clip-path="url(#p.0)"><path fill="#000000" fill-opacity="0.0" d="m0 0l960.0 0l0 720.0l-960.0 0z" fill-rule="evenodd"/><path fill="#a72a1e" d="m187.65662 334.51233l0 0c0 -1.330719 1.0787506 -2.4094543 2.409439 -2.4094543l72.56694 0c0.63900757 0 1.2518616 0.2538452 1.7037354 0.7056885c0.45184326 0.45187378 0.705719 1.0647278 0.705719 1.7037659l0 0l0 0c0 1.3306885 -1.0787659 2.4094238 -2.4094543 2.4094238l-72.56694 0l0 0c-1.3306885 0 -2.409439 -1.0787354 -2.409439 -2.4094238z" fill-rule="evenodd"/><path stroke="#a72a1e" stroke-width="1.0" stroke-linejoin="round" stroke-linecap="butt" d="m187.65662 334.51233l0 0c0 -1.330719 1.0787506 -2.4094543 2.409439 -2.4094543l72.56694 0c0.63900757 0 1.2518616 0.2538452 1.7037354 0.7056885c0.45184326 0.45187378 0.705719 1.0647278 0.705719 1.7037659l0 0l0 0c0 1.3306885 -1.0787659 2.4094238 -2.4094543 2.4094238l-72.56694 0l0 0c-1.3306885 0 -2.409439 -1.0787354 -2.409439 -2.4094238z" fill-rule="evenodd"/><path fill="#000000" fill-opacity="0.0" d="m75.56975 332.89133l0 0c0 -21.369812 17.323647 -38.69345 38.69345 -38.69345l0 0c10.262146 0 20.103973 4.076599 27.360397 11.333038c7.256439 7.256439 11.333054 17.098267 11.333054 27.360413l0 0c0 21.369812 -17.323639 38.69345 -38.69345 38.69345l0 0c-21.369804 0 -38.69345 -17.323639 -38.69345 -38.69345z" fill-rule="evenodd"/><path stroke="#a72a1e" stroke-width="4.0" stroke-linejoin="round" stroke-linecap="butt" d="m75.56975 332.89133l0 0c0 -21.369812 17.323647 -38.69345 38.69345 -38.69345l0 0c10.262146 0 20.103973 4.076599 27.360397 11.333038c7.256439 7.256439 11.333054 17.098267 11.333054 27.360413l0 0c0 21.369812 -17.323639 38.69345 -38.69345 38.69345l0 0c-21.369804 0 -38.69345 -17.323639 -38.69345 -38.69345z" fill-rule="evenodd"/><path fill="#000000" fill-opacity="0.0" d="m85.824196 315.18524l56.878014 0l0 41.799072l-56.878014 0z" fill-rule="evenodd"/><path fill="#000000" d="m107.543106 334.1271l0 1.578125l-6.359375 0l0 -1.265625l3.25 -3.046875q0.515625 -0.5 0.6875 -0.84375q0.1875 -0.359375 0.1875 -0.71875q0 -0.5 -0.34375 -0.765625q-0.34375 -0.265625 -1.0 -0.265625q-0.5625 0 -1.0 0.21875q-0.4375 0.203125 -0.75 0.609375l-1.40625 -0.90625q0.484375 -0.734375 1.34375 -1.140625q0.875 -0.421875 1.984375 -0.421875q0.9375 0 1.640625 0.3125q0.703125 0.296875 1.09375 0.859375q0.390625 0.5625 0.390625 1.3125q0 0.6875 -0.296875 1.296875q-0.28125 0.59375 -1.109375 1.359375l-1.9375 1.828125l3.625 0zm4.3685455 1.71875q-1.03125 0 -1.859375 -0.515625q-0.8125 -0.515625 -1.28125 -1.484375q-0.453125 -0.984375 -0.453125 -2.34375q0 -1.359375 0.453125 -2.328125q0.46875 -0.984375 1.28125 -1.5q0.828125 -0.515625 1.859375 -0.515625q1.046875 0 1.859375 0.515625q0.828125 0.515625 1.28125 1.5q0.46875 0.96875 0.46875 2.328125q0 1.359375 -0.46875 2.34375q-0.453125 0.96875 -1.28125 1.484375q-0.8125 0.515625 -1.859375 0.515625zm0 -1.640625q0.78125 0 1.21875 -0.65625q0.4375 -0.65625 0.4375 -2.046875q0 -1.375 -0.4375 -2.03125q-0.4375 -0.671875 -1.21875 -0.671875q-0.75 0 -1.1875 0.671875q-0.4375 0.65625 -0.4375 2.03125q0 1.390625 0.4375 2.046875q0.4375 0.65625 1.1875 0.65625zm7.716675 -6.90625l0 8.40625l-1.9375 0l0 -6.84375l-1.6875 0l0 -1.5625l3.625 0zm5.3915405 3.421875q1.109375 0.1875 1.6875 0.828125q0.59375 0.640625 0.59375 1.59375q0 0.71875 -0.390625 1.34375q-0.375 0.625 -1.171875 1.0q-0.78125 0.359375 -1.921875 0.359375q-0.890625 0 -1.75 -0.234375q-0.84375 -0.234375 -1.453125 -0.65625l0.765625 -1.5q0.46875 0.359375 1.09375 0.5625q0.640625 0.203125 1.296875 0.203125q0.734375 0 1.15625 -0.28125q0.421875 -0.28125 0.421875 -0.796875q0 -1.03125 -1.578125 -1.03125l-0.890625 0l0 -1.296875l1.734375 -1.953125l-3.578125 0l0 -1.5625l5.875 0l0 1.265625l-1.890625 2.15625z" fill-rule="nonzero"/><path fill="#000000" fill-opacity="0.0" d="m2.988322 400.70032l222.55083 0l0 58.128082l-222.55083 0z" fill-rule="evenodd"/><path fill="#000000" d="m68.93822 420.6115q1.0 0.21875 1.546875 0.875q0.5625 0.65625 0.5625 1.6875q0 1.3125 -0.984375 2.03125q-0.96875 0.703125 -2.875 0.703125l-4.718746 0l0 -10.265625l4.421871 0q1.71875 0 2.65625 0.703125q0.953125 0.6875 0.953125 1.9375q0 0.859375 -0.421875 1.453125q-0.421875 0.59375 -1.140625 0.875zm-5.390621 -4.0625l0 3.71875l3.2812462 0q1.234375 0 1.90625 -0.46875q0.6875 -0.484375 0.6875 -1.390625q0 -0.90625 -0.6875 -1.375q-0.671875 -0.484375 -1.90625 -0.484375l-3.2812462 0zm3.6249962 8.46875q1.375 0 2.078125 -0.46875q0.703125 -0.46875 0.703125 -1.46875q0 -1.921875 -2.78125 -1.921875l-3.6249962 0l0 3.859375l3.6249962 0zm12.785233 -1.84375l-5.71875 0l-1.234375 2.734375l-1.125 0l4.6875 -10.265625l1.078125 0l4.6875 10.265625l-1.140625 0l-1.234375 -2.734375zm-0.40625 -0.890625l-2.453125 -5.5l-2.46875 5.5l4.921875 0zm12.161026 -6.640625q1.953125 0 3.0625 0.9375q1.125 0.9375 1.125 2.59375q0 1.640625 -1.125 2.578125q-1.109375 0.921875 -3.0625 0.921875l-2.765625 0l0 3.234375l-1.078125 0l0 -10.265625l3.84375 0zm-0.03125 6.078125q1.515625 0 2.328125 -0.671875q0.8125 -0.671875 0.8125 -1.875q0 -1.25 -0.8125 -1.921875q-0.8125 -0.671875 -2.328125 -0.671875l-2.734375 0l0 5.140625l2.734375 0zm10.413849 -3.578125q1.453125 0 2.3125 0.84375q0.859375 0.84375 0.859375 2.453125l0 4.46875l-1.046875 0l0 -4.375q0 -1.1875 -0.609375 -1.8125q-0.59375 -0.640625 -1.703125 -0.640625q-1.25 0 -1.984375 0.75q-0.71875 0.734375 -0.71875 2.03125l0 4.046875l-1.03125 0l0 -10.875l1.03125 0l0 4.515625q0.4375 -0.671875 1.171875 -1.03125q0.75 -0.375 1.71875 -0.375zm6.0004425 0.0625l1.03125 0l0 7.703125l-1.03125 0l0 -7.703125zm0.53125 -1.6875q-0.328125 0 -0.546875 -0.21875q-0.21875 -0.21875 -0.21875 -0.53125q0 -0.296875 0.21875 -0.515625q0.21875 -0.21875 0.546875 -0.21875q0.3125 0 0.53125 0.21875q0.21875 0.203125 0.21875 0.5q0 0.328125 -0.21875 0.546875q-0.21875 0.21875 -0.53125 0.21875zm3.4113007 -1.484375l1.03125 0l0 10.875l-1.03125 0l0 -10.875zm7.0988007 10.953125q-1.125 0 -2.015625 -0.5q-0.890625 -0.515625 -1.40625 -1.40625q-0.515625 -0.890625 -0.515625 -2.03125q0 -1.125 0.515625 -2.015625q0.515625 -0.890625 1.40625 -1.390625q0.890625 -0.5 2.015625 -0.5q1.109375 0 2.0 0.5q0.890625 0.5 1.390625 1.390625q0.515625 0.890625 0.515625 2.015625q0 1.140625 -0.515625 2.03125q-0.5 0.890625 -1.390625 1.40625q-0.890625 0.5 -2.0 0.5zm0 -0.921875q0.8125 0 1.46875 -0.375q0.65625 -0.375 1.015625 -1.0625q0.359375 -0.6875 0.359375 -1.578125q0 -0.875 -0.359375 -1.5625q-0.359375 -0.6875 -1.015625 -1.0625q-0.65625 -0.375 -1.46875 -0.375q-0.828125 0 -1.484375 0.375q-0.640625 0.375 -1.015625 1.0625q-0.375 0.6875 -0.375 1.5625q0 0.890625 0.375 1.578125q0.375 0.6875 1.015625 1.0625q0.65625 0.375 1.484375 0.375zm8.095749 0.921875q-0.9375 0 -1.796875 -0.265625q-0.859375 -0.28125 -1.34375 -0.6875l0.46875 -0.828125q0.484375 0.390625 1.21875 0.640625q0.734375 0.234375 1.53125 0.234375q1.046875 0 1.546875 -0.328125q0.515625 -0.34375 0.515625 -0.9375q0 -0.421875 -0.28125 -0.65625q-0.28125 -0.25 -0.703125 -0.375q-0.421875 -0.125 -1.125 -0.25q-0.9375 -0.171875 -1.515625 -0.34375q-0.5625 -0.1875 -0.96875 -0.625q-0.40625 -0.453125 -0.40625 -1.21875q0 -0.96875 0.796875 -1.578125q0.8125 -0.625 2.25 -0.625q0.75 0 1.5 0.203125q0.75 0.1875 1.234375 0.515625l-0.453125 0.828125q-0.953125 -0.65625 -2.28125 -0.65625q-0.984375 0 -1.5 0.359375q-0.5 0.34375 -0.5 0.921875q0 0.4375 0.28125 0.703125q0.28125 0.265625 0.703125 0.390625q0.4375 0.125 1.1875 0.25q0.921875 0.171875 1.46875 0.359375q0.5625 0.171875 0.953125 0.59375q0.40625 0.421875 0.40625 1.171875q0 1.015625 -0.84375 1.609375q-0.84375 0.59375 -2.34375 0.59375zm8.260681 0q-1.125 0 -2.015625 -0.5q-0.890625 -0.515625 -1.40625 -1.40625q-0.515625 -0.890625 -0.515625 -2.03125q0 -1.125 0.515625 -2.015625q0.515625 -0.890625 1.40625 -1.390625q0.890625 -0.5 2.015625 -0.5q1.109375 0 2.0 0.5q0.890625 0.5 1.390625 1.390625q0.515625 0.890625 0.515625 2.015625q0 1.140625 -0.515625 2.03125q-0.5 0.890625 -1.390625 1.40625q-0.890625 0.5 -2.0 0.5zm0 -0.921875q0.8125 0 1.46875 -0.375q0.65625 -0.375 1.015625 -1.0625q0.359375 -0.6875 0.359375 -1.578125q0 -0.875 -0.359375 -1.5625q-0.359375 -0.6875 -1.015625 -1.0625q-0.65625 -0.375 -1.46875 -0.375q-0.828125 0 -1.484375 0.375q-0.640625 0.375 -1.015625 1.0625q-0.375 0.6875 -0.375 1.5625q0 0.890625 0.375 1.578125q0.375 0.6875 1.015625 1.0625q0.65625 0.375 1.484375 0.375zm10.002014 -6.921875q1.078125 0 1.953125 0.5q0.890625 0.484375 1.390625 1.375q0.5 0.890625 0.5 2.03125q0 1.15625 -0.5 2.0625q-0.5 0.890625 -1.375 1.390625q-0.875 0.484375 -1.96875 0.484375q-0.9375 0 -1.703125 -0.390625q-0.75 -0.390625 -1.234375 -1.140625l0 4.296875l-1.03125 0l0 -10.546875l1.0 0l0 1.515625q0.46875 -0.765625 1.234375 -1.171875q0.765625 -0.40625 1.734375 -0.40625zm-0.078125 6.921875q0.8125 0 1.46875 -0.375q0.65625 -0.375 1.03125 -1.0625q0.375 -0.6875 0.375 -1.578125q0 -0.875 -0.375 -1.546875q-0.375 -0.6875 -1.03125 -1.0625q-0.65625 -0.390625 -1.46875 -0.390625q-0.8125 0 -1.46875 0.390625q-0.65625 0.375 -1.03125 1.0625q-0.359375 0.671875 -0.359375 1.546875q0 0.890625 0.359375 1.578125q0.375 0.6875 1.03125 1.0625q0.65625 0.375 1.46875 0.375zm9.968231 -6.921875q1.453125 0 2.3125 0.84375q0.859375 0.84375 0.859375 2.453125l0 4.46875l-1.046875 0l0 -4.375q0 -1.1875 -0.609375 -1.8125q-0.59375 -0.640625 -1.703125 -0.640625q-1.25 0 -1.984375 0.75q-0.71875 0.734375 -0.71875 2.03125l0 4.046875l-1.03125 0l0 -10.875l1.03125 0l0 4.515625q0.4375 -0.671875 1.171875 -1.03125q0.75 -0.375 1.71875 -0.375zm12.32251 0.0625l-3.84375 8.625q-0.46875 1.09375 -1.09375 1.546875q-0.609375 0.453125 -1.46875 0.453125q-0.5625 0 -1.046875 -0.1875q-0.484375 -0.171875 -0.828125 -0.515625l0.484375 -0.78125q0.578125 0.578125 1.40625 0.578125q0.515625 0 0.890625 -0.296875q0.375 -0.28125 0.703125 -0.984375l0.328125 -0.75l-3.4375 -7.6875l1.078125 0l2.90625 6.546875l2.90625 -6.546875l1.015625 0z" fill-rule="nonzero"/><path fill="#000000" d="m71.28325 435.30026l0 9.328125l-0.96875 0l0 -8.484375l-2.1875 0l0 -0.84375l3.15625 0zm4.733307 9.390625q-0.859375 0 -1.640625 -0.234375q-0.78125 -0.25 -1.21875 -0.625l0.421875 -0.75q0.453125 0.34375 1.109375 0.5625q0.671875 0.21875 1.390625 0.21875q0.953125 0 1.40625 -0.296875q0.46875 -0.296875 0.46875 -0.84375q0 -0.390625 -0.25 -0.609375q-0.25 -0.21875 -0.640625 -0.328125q-0.390625 -0.109375 -1.03125 -0.21875q-0.84375 -0.15625 -1.375 -0.328125q-0.515625 -0.171875 -0.890625 -0.5625q-0.359375 -0.40625 -0.359375 -1.109375q0 -0.875 0.734375 -1.4375q0.734375 -0.5625 2.046875 -0.5625q0.671875 0 1.34375 0.1875q0.6875 0.171875 1.125 0.46875l-0.40625 0.75q-0.859375 -0.59375 -2.0625 -0.59375q-0.90625 0 -1.375 0.328125q-0.453125 0.3125 -0.453125 0.828125q0 0.40625 0.25 0.640625q0.265625 0.234375 0.65625 0.359375q0.390625 0.109375 1.0625 0.234375q0.84375 0.15625 1.34375 0.3125q0.515625 0.15625 0.875 0.546875q0.359375 0.390625 0.359375 1.0625q0 0.921875 -0.765625 1.46875q-0.765625 0.53125 -2.125 0.53125zm8.329926 -0.484375q-0.265625 0.234375 -0.671875 0.359375q-0.390625 0.125 -0.8125 0.125q-0.984375 0 -1.515625 -0.53125q-0.53125 -0.53125 -0.53125 -1.5l0 -4.234375l-1.25 0l0 -0.8125l1.25 0l0 -1.53125l0.9375 0l0 1.53125l2.140625 0l0 0.8125l-2.140625 0l0 4.171875q0 0.625 0.3125 0.953125q0.3125 0.328125 0.90625 0.328125q0.296875 0 0.5625 -0.09375q0.28125 -0.09375 0.46875 -0.265625l0.34375 0.6875zm9.465652 0.5q-1.390625 0 -2.515625 -0.609375q-1.109375 -0.609375 -1.75 -1.6875q-0.625 -1.09375 -0.625 -2.453125q0 -1.34375 0.625 -2.421875q0.640625 -1.09375 1.765625 -1.703125q1.125 -0.609375 2.5 -0.609375q1.046875 0 1.921875 0.34375q0.890625 0.34375 1.5 1.015625l-0.625 0.625q-1.09375 -1.109375 -2.765625 -1.109375q-1.109375 0 -2.015625 0.515625q-0.90625 0.5 -1.421875 1.390625q-0.5 0.875 -0.5 1.953125q0 1.09375 0.5 1.984375q0.515625 0.875 1.421875 1.390625q0.90625 0.5 2.015625 0.5q1.6875 0 2.765625 -1.125l0.625 0.625q-0.609375 0.671875 -1.5 1.03125q-0.890625 0.34375 -1.921875 0.34375zm5.3172607 -9.96875l0.953125 0l0 9.890625l-0.953125 0l0 -9.890625zm6.038376 2.828125q1.375 0 2.109375 0.6875q0.734375 0.6875 0.734375 2.03125l0 4.34375l-0.90625 0l0 -1.09375q-0.3125 0.546875 -0.9375 0.859375q-0.625 0.296875 -1.46875 0.296875q-1.171875 0 -1.875 -0.546875q-0.6875 -0.5625 -0.6875 -1.484375q0 -0.890625 0.640625 -1.4375q0.65625 -0.546875 2.0625 -0.546875l2.234375 0l0 -0.4375q0 -0.90625 -0.515625 -1.375q-0.5 -0.46875 -1.484375 -0.46875q-0.65625 0 -1.28125 0.21875q-0.609375 0.21875 -1.046875 0.609375l-0.421875 -0.71875q0.53125 -0.453125 1.28125 -0.6875q0.75 -0.25 1.5625 -0.25zm-0.328125 6.375q0.796875 0 1.375 -0.359375q0.578125 -0.359375 0.859375 -1.0625l0 -1.140625l-2.203125 0q-1.796875 0 -1.796875 1.25q0 0.609375 0.453125 0.96875q0.46875 0.34375 1.3125 0.34375zm7.629196 0.75q-0.859375 0 -1.640625 -0.234375q-0.78125 -0.25 -1.21875 -0.625l0.421875 -0.75q0.453125 0.34375 1.109375 0.5625q0.671875 0.21875 1.390625 0.21875q0.953125 0 1.40625 -0.296875q0.46875 -0.296875 0.46875 -0.84375q0 -0.390625 -0.25 -0.609375q-0.25 -0.21875 -0.640625 -0.328125q-0.390625 -0.109375 -1.03125 -0.21875q-0.84375 -0.15625 -1.375 -0.328125q-0.515625 -0.171875 -0.890625 -0.5625q-0.359375 -0.40625 -0.359375 -1.109375q0 -0.875 0.734375 -1.4375q0.734375 -0.5625 2.046875 -0.5625q0.671875 0 1.34375 0.1875q0.6875 0.171875 1.125 0.46875l-0.40625 0.75q-0.859375 -0.59375 -2.0625 -0.59375q-0.90625 0 -1.375 0.328125q-0.453125 0.3125 -0.453125 0.828125q0 0.40625 0.25 0.640625q0.265625 0.234375 0.65625 0.359375q0.390625 0.109375 1.0625 0.234375q0.84375 0.15625 1.34375 0.3125q0.515625 0.15625 0.875 0.546875q0.359375 0.390625 0.359375 1.0625q0 0.921875 -0.765625 1.46875q-0.765625 0.53125 -2.125 0.53125zm6.5174255 0q-0.859375 0 -1.640625 -0.234375q-0.78125 -0.25 -1.21875 -0.625l0.421875 -0.75q0.453125 0.34375 1.109375 0.5625q0.671875 0.21875 1.390625 0.21875q0.953125 0 1.40625 -0.296875q0.46875 -0.296875 0.46875 -0.84375q0 -0.390625 -0.25 -0.609375q-0.25 -0.21875 -0.640625 -0.328125q-0.390625 -0.109375 -1.03125 -0.21875q-0.84375 -0.15625 -1.375 -0.328125q-0.515625 -0.171875 -0.890625 -0.5625q-0.359375 -0.40625 -0.359375 -1.109375q0 -0.875 0.734375 -1.4375q0.734375 -0.5625 2.046875 -0.5625q0.671875 0 1.34375 0.1875q0.6875 0.171875 1.125 0.46875l-0.40625 0.75q-0.859375 -0.59375 -2.0625 -0.59375q-0.90625 0 -1.375 0.328125q-0.453125 0.3125 -0.453125 0.828125q0 0.40625 0.25 0.640625q0.265625 0.234375 0.65625 0.359375q0.390625 0.109375 1.0625 0.234375q0.84375 0.15625 1.34375 0.3125q0.515625 0.15625 0.875 0.546875q0.359375 0.390625 0.359375 1.0625q0 0.921875 -0.765625 1.46875q-0.765625 0.53125 -2.125 0.53125zm16.11876 -9.390625l0 9.328125l-0.96875 0l0 -4.3125l-5.84375 0l0 4.3125l-0.984375 0l0 -9.328125l0.984375 0l0 4.15625l5.84375 0l0 -4.15625l0.96875 0zm5.710724 9.390625q-1.015625 0 -1.828125 -0.453125q-0.8125 -0.46875 -1.28125 -1.28125q-0.46875 -0.8125 -0.46875 -1.828125q0 -1.03125 0.46875 -1.84375q0.46875 -0.8125 1.28125 -1.265625q0.8125 -0.453125 1.828125 -0.453125q1.015625 0 1.828125 0.453125q0.8125 0.453125 1.265625 1.265625q0.46875 0.8125 0.46875 1.84375q0 1.015625 -0.46875 1.828125q-0.453125 0.8125 -1.265625 1.28125q-0.8125 0.453125 -1.828125 0.453125zm0 -0.828125q0.75 0 1.34375 -0.34375q0.59375 -0.34375 0.921875 -0.96875q0.328125 -0.625 0.328125 -1.421875q0 -0.8125 -0.328125 -1.4375q-0.328125 -0.625 -0.921875 -0.953125q-0.59375 -0.34375 -1.34375 -0.34375q-0.75 0 -1.34375 0.34375q-0.59375 0.328125 -0.9375 0.953125q-0.328125 0.625 -0.328125 1.4375q0 0.796875 0.328125 1.421875q0.34375 0.625 0.9375 0.96875q0.59375 0.34375 1.34375 0.34375zm9.059845 -6.296875q1.3125 0 2.09375 0.765625q0.78125 0.765625 0.78125 2.234375l0 4.0625l-0.9375 0l0 -3.96875q0 -1.09375 -0.546875 -1.65625q-0.546875 -0.578125 -1.5625 -0.578125q-1.140625 0 -1.796875 0.671875q-0.65625 0.671875 -0.65625 1.859375l0 3.671875l-0.953125 0l0 -7.015625l0.90625 0l0 1.296875q0.390625 -0.640625 1.078125 -0.984375q0.6875 -0.359375 1.59375 -0.359375zm7.335602 7.125q-0.859375 0 -1.640625 -0.234375q-0.78125 -0.25 -1.21875 -0.625l0.421875 -0.75q0.453125 0.34375 1.109375 0.5625q0.671875 0.21875 1.390625 0.21875q0.953125 0 1.40625 -0.296875q0.46875 -0.296875 0.46875 -0.84375q0 -0.390625 -0.25 -0.609375q-0.25 -0.21875 -0.640625 -0.328125q-0.390625 -0.109375 -1.03125 -0.21875q-0.84375 -0.15625 -1.375 -0.328125q-0.515625 -0.171875 -0.890625 -0.5625q-0.359375 -0.40625 -0.359375 -1.109375q0 -0.875 0.734375 -1.4375q0.734375 -0.5625 2.046875 -0.5625q0.671875 0 1.34375 0.1875q0.6875 0.171875 1.125 0.46875l-0.40625 0.75q-0.859375 -0.59375 -2.0625 -0.59375q-0.90625 0 -1.375 0.328125q-0.453125 0.3125 -0.453125 0.828125q0 0.40625 0.25 0.640625q0.265625 0.234375 0.65625 0.359375q0.390625 0.109375 1.0625 0.234375q0.84375 0.15625 1.34375 0.3125q0.515625 0.15625 0.875 0.546875q0.359375 0.390625 0.359375 1.0625q0 0.921875 -0.765625 1.46875q-0.765625 0.53125 -2.125 0.53125z" fill-rule="nonzero"/><path fill="#000000" fill-opacity="0.0" d="m-6.5876514E-4 458.82925l228.52771 0l0 96.02072l-228.52771 0z" fill-rule="evenodd"/><path fill="#000000" d="m22.272604 481.41052q-0.4375 0.53125 -1.015625 0.796875q-0.578125 0.28125 -1.25 0.28125q-0.828125 0 -1.578125 -0.40625q-0.734375 -0.40625 -1.65625 -1.375q-1.343751 -0.03125 -2.421876 -0.65625q-1.078125 -0.640625 -1.703125 -1.703125q-0.609375 -1.0625 -0.609375 -2.390625q0 -1.34375 0.625 -2.421875q0.640625 -1.078125 1.765625 -1.6875q1.140625 -0.625 2.515626 -0.625q1.390625 0 2.5 0.609375q1.109375 0.609375 1.75 1.703125q0.640625 1.078125 0.640625 2.421875q0 1.1875 -0.484375 2.171875q-0.484375 0.96875 -1.359375 1.625q-0.875 0.640625 -2.0 0.859375q1.015625 1.078125 2.015625 1.078125q1.046875 0 1.78125 -0.84375l0.484375 0.5625zm-9.250001 -5.453125q0 1.09375 0.5 1.984375q0.515625 0.875 1.40625 1.390625q0.90625 0.5 2.015626 0.5q1.109375 0 2.0 -0.5q0.890625 -0.515625 1.390625 -1.390625q0.515625 -0.890625 0.515625 -1.984375q0 -1.078125 -0.515625 -1.953125q-0.5 -0.890625 -1.390625 -1.390625q-0.890625 -0.515625 -2.0 -0.515625q-1.109376 0 -2.015626 0.515625q-0.890625 0.5 -1.40625 1.390625q-0.5 0.875 -0.5 1.953125zm14.791627 4.75q-1.8125 0 -2.828125 -1.03125q-1.015625 -1.046875 -1.015625 -3.03125l0 -5.34375l0.984375 0l0 5.296875q0 1.625 0.734375 2.4375q0.734375 0.796875 2.125 0.796875q1.390625 0 2.125 -0.796875q0.734375 -0.8125 0.734375 -2.4375l0 -5.296875l0.96875 0l0 5.34375q0 1.984375 -1.015625 3.03125q-1.0 1.03125 -2.8125 1.03125zm13.383955 -0.9375l0 0.859375l-6.59375 0l0 -9.328125l6.40625 0l0 0.84375l-5.421875 0l0 3.328125l4.828125 0l0 0.84375l-4.828125 0l0 3.453125l5.609375 0zm8.916489 0l0 0.859375l-6.59375 0l0 -9.328125l6.40625 0l0 0.84375l-5.421875 0l0 3.328125l4.828125 0l0 0.84375l-4.828125 0l0 3.453125l5.609375 0zm10.119614 -8.46875l0 9.328125l-0.8125 0l-6.0 -7.578125l0 7.578125l-0.984375 0l0 -9.328125l0.8125 0l6.015625 7.5625l0 -7.5625l0.96875 0zm5.6169777 9.40625q-1.046875 0 -2.0000038 -0.328125q-0.953125 -0.34375 -1.46875 -0.890625l0.390625 -0.75q0.5 0.5 1.3437538 0.8125q0.84375 0.3125 1.734375 0.3125q1.25 0 1.875 -0.453125q0.625 -0.453125 0.625 -1.1875q0 -0.5625 -0.34375 -0.890625q-0.328125 -0.34375 -0.828125 -0.515625q-0.484375 -0.1875 -1.375 -0.40625q-1.046875 -0.265625 -1.671875 -0.5q-0.6250038 -0.25 -1.0781288 -0.75q-0.4375 -0.515625 -0.4375 -1.375q0 -0.71875 0.359375 -1.296875q0.375 -0.578125 1.1406288 -0.921875q0.78125 -0.34375 1.9375 -0.34375q0.796875 0 1.5625 0.21875q0.765625 0.21875 1.328125 0.609375l-0.34375 0.78125q-0.578125 -0.390625 -1.25 -0.578125q-0.65625 -0.1875 -1.296875 -0.1875q-1.234375 0 -1.859375 0.46875q-0.6093788 0.46875 -0.6093788 1.21875q0 0.5625 0.328125 0.90625q0.3437538 0.328125 0.8593788 0.515625q0.515625 0.171875 1.375 0.390625q1.03125 0.25 1.65625 0.5q0.640625 0.25 1.078125 0.75q0.453125 0.5 0.453125 1.34375q0 0.703125 -0.390625 1.296875q-0.375 0.578125 -1.171875 0.921875q-0.78125 0.328125 -1.921875 0.328125zm12.876221 0q-1.8125 0 -2.828125 -1.03125q-1.015625 -1.046875 -1.015625 -3.03125l0 -5.34375l0.984375 0l0 5.296875q0 1.625 0.734375 2.4375q0.734375 0.796875 2.125 0.796875q1.390625 0 2.125 -0.796875q0.734375 -0.8125 0.734375 -2.4375l0 -5.296875l0.96875 0l0 5.34375q0 1.984375 -1.015625 3.03125q-1.0 1.03125 -2.8125 1.03125zm14.587082 -9.40625l0 9.328125l-0.8125 0l-6.0 -7.578125l0 7.578125l-0.984375 0l0 -9.328125l0.8125 0l6.015625 7.5625l0 -7.5625l0.96875 0zm3.0388489 0l0.984375 0l0 9.328125l-0.984375 0l0 -9.328125zm11.684036 0l-4.140625 9.328125l-0.96875 0l-4.125 -9.328125l1.0625 0l3.5625 8.109375l3.609375 -8.109375l1.0 0zm7.931122 8.46875l0 0.859375l-6.59375 0l0 -9.328125l6.40625 0l0 0.84375l-5.421875 0l0 3.328125l4.828125 0l0 0.84375l-4.828125 0l0 3.453125l5.609375 0zm8.697739 0.859375l-2.140625 -3.0q-0.359375 0.046875 -0.734375 0.046875l-2.515625 0l0 2.953125l-0.984375 0l0 -9.328125l3.5 0q1.78125 0 2.796875 0.859375q1.015625 0.84375 1.015625 2.34375q0 1.09375 -0.5625 1.84375q-0.546875 0.75 -1.578125 1.078125l2.28125 3.203125l-1.078125 0zm-2.90625 -3.796875q1.390625 0 2.125 -0.609375q0.734375 -0.625 0.734375 -1.71875q0 -1.140625 -0.734375 -1.75q-0.734375 -0.609375 -2.125 -0.609375l-2.484375 0l0 4.6875l2.484375 0zm8.745567 3.875q-1.046875 0 -2.0 -0.328125q-0.9531174 -0.34375 -1.4687424 -0.890625l0.390625 -0.75q0.5 0.5 1.3437424 0.8125q0.84375 0.3125 1.734375 0.3125q1.25 0 1.875 -0.453125q0.625 -0.453125 0.625 -1.1875q0 -0.5625 -0.34375 -0.890625q-0.328125 -0.34375 -0.828125 -0.515625q-0.484375 -0.1875 -1.375 -0.40625q-1.046875 -0.265625 -1.671875 -0.5q-0.625 -0.25 -1.0781174 -0.75q-0.4375 -0.515625 -0.4375 -1.375q0 -0.71875 0.359375 -1.296875q0.37499237 -0.578125 1.1406174 -0.921875q0.78125 -0.34375 1.9375 -0.34375q0.796875 0 1.5625 0.21875q0.765625 0.21875 1.328125 0.609375l-0.34375 0.78125q-0.578125 -0.390625 -1.25 -0.578125q-0.65625 -0.1875 -1.296875 -0.1875q-1.234375 0 -1.859375 0.46875q-0.609375 0.46875 -0.609375 1.21875q0 0.5625 0.328125 0.90625q0.34375 0.328125 0.859375 0.515625q0.515625 0.171875 1.375 0.390625q1.03125 0.25 1.65625 0.5q0.640625 0.25 1.078125 0.75q0.453125 0.5 0.453125 1.34375q0 0.703125 -0.390625 1.296875q-0.375 0.578125 -1.171875 0.921875q-0.78125 0.328125 -1.921875 0.328125zm5.6186523 -9.40625l0.984375 0l0 9.328125l-0.984375 0l0 -9.328125zm5.8375854 0.84375l-3.28125 0l0 -0.84375l7.546875 0l0 0.84375l-3.28125 0l0 8.484375l-0.984375 0l0 -8.484375zm8.974274 5.265625l0 3.21875l-0.96875 0l0 -3.21875l-3.734375 -6.109375l1.046875 0l3.203125 5.234375l3.203125 -5.234375l0.984375 0l-3.734375 6.109375z" fill-rule="nonzero"/><path fill="#000000" d="m165.56331 475.81677q0.921875 0.203125 1.421875 0.796875q0.5 0.59375 0.5 1.515625q0 1.203125 -0.890625 1.859375q-0.875 0.640625 -2.609375 0.640625l-4.296875 0l0 -9.328125l4.03125 0q1.5625 0 2.421875 0.625q0.859375 0.625 0.859375 1.765625q0 0.78125 -0.390625 1.328125q-0.375 0.53125 -1.046875 0.796875zm-4.890625 -3.703125l0 3.390625l2.984375 0q1.125 0 1.734375 -0.4375q0.625 -0.4375 0.625 -1.265625q0 -0.828125 -0.625 -1.25q-0.609375 -0.4375 -1.734375 -0.4375l-2.984375 0zm3.296875 7.703125q1.25 0 1.890625 -0.421875q0.640625 -0.4375 0.640625 -1.34375q0 -1.734375 -2.53125 -1.734375l-3.296875 0l0 3.5l3.296875 0zm12.361862 -0.046875l0 0.859375l-6.59375 0l0 -9.328125l6.40625 0l0 0.84375l-5.421875 0l0 3.328125l4.828125 0l0 0.84375l-4.828125 0l0 3.453125l5.609375 0zm2.3227386 -8.46875l0.984375 0l0 8.46875l5.234375 0l0 0.859375l-6.21875 0l0 -9.328125zm8.83461 0.84375l0 3.671875l4.828125 0l0 0.859375l-4.828125 0l0 3.953125l-0.984375 0l0 -9.328125l6.40625 0l0 0.84375l-5.421875 0zm12.871674 5.984375l-5.203125 0l-1.125 2.5l-1.015625 0l4.265625 -9.328125l0.96875 0l4.265625 9.328125l-1.046875 0l-1.109375 -2.5zm-0.359375 -0.796875l-2.25 -5.0l-2.234375 5.0l4.484375 0zm6.6343536 3.375q-1.046875 0 -2.0 -0.328125q-0.953125 -0.34375 -1.46875 -0.890625l0.390625 -0.75q0.5 0.5 1.34375 0.8125q0.84375 0.3125 1.734375 0.3125q1.25 0 1.875 -0.453125q0.625 -0.453125 0.625 -1.1875q0 -0.5625 -0.34375 -0.890625q-0.328125 -0.34375 -0.828125 -0.515625q-0.484375 -0.1875 -1.375 -0.40625q-1.046875 -0.265625 -1.671875 -0.5q-0.625 -0.25 -1.078125 -0.75q-0.4375 -0.515625 -0.4375 -1.375q0 -0.71875 0.359375 -1.296875q0.375 -0.578125 1.140625 -0.921875q0.78125 -0.34375 1.9375 -0.34375q0.796875 0 1.5625 0.21875q0.765625 0.21875 1.328125 0.609375l-0.34375 0.78125q-0.578125 -0.390625 -1.25 -0.578125q-0.65625 -0.1875 -1.296875 -0.1875q-1.234375 0 -1.859375 0.46875q-0.609375 0.46875 -0.609375 1.21875q0 0.5625 0.328125 0.90625q0.34375 0.328125 0.859375 0.515625q0.515625 0.171875 1.375 0.390625q1.03125 0.25 1.65625 0.5q0.640625 0.25 1.078125 0.75q0.453125 0.5 0.453125 1.34375q0 0.703125 -0.390625 1.296875q-0.375 0.578125 -1.171875 0.921875q-0.78125 0.328125 -1.921875 0.328125zm7.297806 -8.5625l-3.28125 0l0 -0.84375l7.546875 0l0 0.84375l-3.28125 0l0 8.484375l-0.984375 0l0 -8.484375zm5.3307343 7.09375q0.3125 0 0.5 0.21875q0.203125 0.203125 0.203125 0.5q0 0.171875 -0.046875 0.359375q-0.03125 0.171875 -0.125 0.421875l-0.5625 1.84375l-0.640625 0l0.453125 -1.9375q-0.21875 -0.0625 -0.359375 -0.234375q-0.125 -0.1875 -0.125 -0.453125q0 -0.296875 0.203125 -0.5q0.203125 -0.21875 0.5 -0.21875z" fill-rule="nonzero"/><path fill="#000000" d="m109.528404 498.7074q-1.8125 0 -2.828125 -1.03125q-1.015625 -1.046875 -1.015625 -3.03125l0 -5.34375l0.984375 0l0 5.296875q0 1.625 0.734375 2.4375q0.734375 0.796875 2.125 0.796875q1.390625 0 2.125 -0.796875q0.734375 -0.8125 0.734375 -2.4375l0 -5.296875l0.96875 0l0 5.34375q0 1.984375 -1.015625 3.03125q-1.0 1.03125 -2.8125 1.03125zm9.680832 -4.46875l-1.90625 1.9375l0 2.453125l-0.984375 0l0 -9.328125l0.984375 0l0 5.640625l5.484375 -5.640625l1.125 0l-4.03125 4.21875l4.3125 5.109375l-1.171875 0l-3.8125 -4.390625z" fill-rule="nonzero"/><path fill="#000000" fill-opacity="0.0" d="m309.97293 332.89133l0 0c0 -21.369812 17.32367 -38.69345 38.69345 -38.69345l0 0c10.262146 0 20.103973 4.076599 27.360413 11.333038c7.256439 7.256439 11.333038 17.098267 11.333038 27.360413l0 0c0 21.369812 -17.323639 38.69345 -38.69345 38.69345l0 0c-21.369781 0 -38.69345 -17.323639 -38.69345 -38.69345z" fill-rule="evenodd"/><path stroke="#a72a1e" stroke-width="4.0" stroke-linejoin="round" stroke-linecap="butt" d="m309.97293 332.89133l0 0c0 -21.369812 17.32367 -38.69345 38.69345 -38.69345l0 0c10.262146 0 20.103973 4.076599 27.360413 11.333038c7.256439 7.256439 11.333038 17.098267 11.333038 27.360413l0 0c0 21.369812 -17.323639 38.69345 -38.69345 38.69345l0 0c-21.369781 0 -38.69345 -17.323639 -38.69345 -38.69345z" fill-rule="evenodd"/><path fill="#000000" fill-opacity="0.0" d="m237.39133 400.70255l222.55084 0l0 58.12805l-222.55084 0z" fill-rule="evenodd"/><path fill="#000000" d="m306.0558 415.645l0 10.265625l-1.046875 0l0 -8.203125l-4.03125 6.90625l-0.515625 0l-4.015625 -6.859375l0 8.15625l-1.046875 0l0 -10.265625l0.890625 0l4.453125 7.609375l4.421875 -7.609375l0.890625 0zm9.778015 7.53125l-5.71875 0l-1.234375 2.734375l-1.125 0l4.6875 -10.265625l1.078125 0l4.6875 10.265625l-1.140625 0l-1.234375 -2.734375zm-0.40625 -0.890625l-2.453125 -5.5l-2.46875 5.5l4.921875 0zm12.161011 -6.640625q1.953125 0 3.0625 0.9375q1.125 0.9375 1.125 2.59375q0 1.640625 -1.125 2.578125q-1.109375 0.921875 -3.0625 0.921875l-2.765625 0l0 3.234375l-1.078125 0l0 -10.265625l3.84375 0zm-0.03125 6.078125q1.515625 0 2.328125 -0.671875q0.8125 -0.671875 0.8125 -1.875q0 -1.25 -0.8125 -1.921875q-0.8125 -0.671875 -2.328125 -0.671875l-2.734375 0l0 5.140625l2.734375 0zm10.413849 -3.578125q1.453125 0 2.3125 0.84375q0.859375 0.84375 0.859375 2.453125l0 4.46875l-1.046875 0l0 -4.375q0 -1.1875 -0.609375 -1.8125q-0.59375 -0.640625 -1.703125 -0.640625q-1.25 0 -1.984375 0.75q-0.71875 0.734375 -0.71875 2.03125l0 4.046875l-1.03125 0l0 -10.875l1.03125 0l0 4.515625q0.4375 -0.671875 1.171875 -1.03125q0.75 -0.375 1.71875 -0.375zm6.000458 0.0625l1.03125 0l0 7.703125l-1.03125 0l0 -7.703125zm0.53125 -1.6875q-0.328125 0 -0.546875 -0.21875q-0.21875 -0.21875 -0.21875 -0.53125q0 -0.296875 0.21875 -0.515625q0.21875 -0.21875 0.546875 -0.21875q0.3125 0 0.53125 0.21875q0.21875 0.203125 0.21875 0.5q0 0.328125 -0.21875 0.546875q-0.21875 0.21875 -0.53125 0.21875zm3.4112854 -1.484375l1.03125 0l0 10.875l-1.03125 0l0 -10.875zm7.098816 10.953125q-1.125 0 -2.015625 -0.5q-0.890625 -0.515625 -1.40625 -1.40625q-0.515625 -0.890625 -0.515625 -2.03125q0 -1.125 0.515625 -2.015625q0.515625 -0.890625 1.40625 -1.390625q0.890625 -0.5 2.015625 -0.5q1.109375 0 2.0 0.5q0.890625 0.5 1.390625 1.390625q0.515625 0.890625 0.515625 2.015625q0 1.140625 -0.515625 2.03125q-0.5 0.890625 -1.390625 1.40625q-0.890625 0.5 -2.0 0.5zm0 -0.921875q0.8125 0 1.46875 -0.375q0.65625 -0.375 1.015625 -1.0625q0.359375 -0.6875 0.359375 -1.578125q0 -0.875 -0.359375 -1.5625q-0.359375 -0.6875 -1.015625 -1.0625q-0.65625 -0.375 -1.46875 -0.375q-0.828125 0 -1.484375 0.375q-0.640625 0.375 -1.015625 1.0625q-0.375 0.6875 -0.375 1.5625q0 0.890625 0.375 1.578125q0.375 0.6875 1.015625 1.0625q0.65625 0.375 1.484375 0.375zm8.095734 0.921875q-0.9375 0 -1.796875 -0.265625q-0.859375 -0.28125 -1.34375 -0.6875l0.46875 -0.828125q0.484375 0.390625 1.21875 0.640625q0.734375 0.234375 1.53125 0.234375q1.046875 0 1.546875 -0.328125q0.515625 -0.34375 0.515625 -0.9375q0 -0.421875 -0.28125 -0.65625q-0.28125 -0.25 -0.703125 -0.375q-0.421875 -0.125 -1.125 -0.25q-0.9375 -0.171875 -1.515625 -0.34375q-0.5625 -0.1875 -0.96875 -0.625q-0.40625 -0.453125 -0.40625 -1.21875q0 -0.96875 0.796875 -1.578125q0.8125 -0.625 2.25 -0.625q0.75 0 1.5 0.203125q0.75 0.1875 1.234375 0.515625l-0.453125 0.828125q-0.953125 -0.65625 -2.28125 -0.65625q-0.984375 0 -1.5 0.359375q-0.5 0.34375 -0.5 0.921875q0 0.4375 0.28125 0.703125q0.28125 0.265625 0.703125 0.390625q0.4375 0.125 1.1875 0.25q0.921875 0.171875 1.46875 0.359375q0.5625 0.171875 0.953125 0.59375q0.40625 0.421875 0.40625 1.171875q0 1.015625 -0.84375 1.609375q-0.84375 0.59375 -2.34375 0.59375zm8.260681 0q-1.125 0 -2.015625 -0.5q-0.890625 -0.515625 -1.40625 -1.40625q-0.515625 -0.890625 -0.515625 -2.03125q0 -1.125 0.515625 -2.015625q0.515625 -0.890625 1.40625 -1.390625q0.890625 -0.5 2.015625 -0.5q1.109375 0 2.0 0.5q0.890625 0.5 1.390625 1.390625q0.515625 0.890625 0.515625 2.015625q0 1.140625 -0.515625 2.03125q-0.5 0.890625 -1.390625 1.40625q-0.890625 0.5 -2.0 0.5zm0 -0.921875q0.8125 0 1.46875 -0.375q0.65625 -0.375 1.015625 -1.0625q0.359375 -0.6875 0.359375 -1.578125q0 -0.875 -0.359375 -1.5625q-0.359375 -0.6875 -1.015625 -1.0625q-0.65625 -0.375 -1.46875 -0.375q-0.828125 0 -1.484375 0.375q-0.640625 0.375 -1.015625 1.0625q-0.375 0.6875 -0.375 1.5625q0 0.890625 0.375 1.578125q0.375 0.6875 1.015625 1.0625q0.65625 0.375 1.484375 0.375zm10.002014 -6.921875q1.078125 0 1.953125 0.5q0.890625 0.484375 1.390625 1.375q0.5 0.890625 0.5 2.03125q0 1.15625 -0.5 2.0625q-0.5 0.890625 -1.375 1.390625q-0.875 0.484375 -1.96875 0.484375q-0.9375 0 -1.703125 -0.390625q-0.75 -0.390625 -1.234375 -1.140625l0 4.296875l-1.03125 0l0 -10.546875l1.0 0l0 1.515625q0.46875 -0.765625 1.234375 -1.171875q0.765625 -0.40625 1.734375 -0.40625zm-0.078125 6.921875q0.8125 0 1.46875 -0.375q0.65625 -0.375 1.03125 -1.0625q0.375 -0.6875 0.375 -1.578125q0 -0.875 -0.375 -1.546875q-0.375 -0.6875 -1.03125 -1.0625q-0.65625 -0.390625 -1.46875 -0.390625q-0.8125 0 -1.46875 0.390625q-0.65625 0.375 -1.03125 1.0625q-0.359375 0.671875 -0.359375 1.546875q0 0.890625 0.359375 1.578125q0.375 0.6875 1.03125 1.0625q0.65625 0.375 1.46875 0.375zm9.968231 -6.921875q1.453125 0 2.3125 0.84375q0.859375 0.84375 0.859375 2.453125l0 4.46875l-1.046875 0l0 -4.375q0 -1.1875 -0.609375 -1.8125q-0.59375 -0.640625 -1.703125 -0.640625q-1.25 0 -1.984375 0.75q-0.71875 0.734375 -0.71875 2.03125l0 4.046875l-1.03125 0l0 -10.875l1.03125 0l0 4.515625q0.4375 -0.671875 1.171875 -1.03125q0.75 -0.375 1.71875 -0.375zm12.32251 0.0625l-3.84375 8.625q-0.46875 1.09375 -1.09375 1.546875q-0.609375 0.453125 -1.46875 0.453125q-0.5625 0 -1.046875 -0.1875q-0.484375 -0.171875 -0.828125 -0.515625l0.484375 -0.78125q0.578125 0.578125 1.40625 0.578125q0.515625 0 0.890625 -0.296875q0.375 -0.28125 0.703125 -0.984375l0.328125 -0.75l-3.4375 -7.6875l1.078125 0l2.90625 6.546875l2.90625 -6.546875l1.015625 0z" fill-rule="nonzero"/><path fill="#000000" d="m313.62344 435.3025l3.796875 0q1.484375 0 2.609375 0.59375q1.140625 0.59375 1.765625 1.65625q0.625 1.046875 0.625 2.40625q0 1.359375 -0.625 2.421875q-0.625 1.0625 -1.765625 1.65625q-1.125 0.59375 -2.609375 0.59375l-3.796875 0l0 -9.328125zm3.75 8.46875q1.21875 0 2.140625 -0.484375q0.921875 -0.484375 1.421875 -1.34375q0.515625 -0.859375 0.515625 -1.984375q0 -1.109375 -0.515625 -1.96875q-0.5 -0.859375 -1.421875 -1.34375q-0.921875 -0.5 -2.140625 -0.5l-2.765625 0l0 7.625l2.765625 0zm7.0558777 -6.15625l0.953125 0l0 7.015625l-0.953125 0l0 -7.015625zm0.484375 -1.53125q-0.296875 0 -0.5 -0.1875q-0.1875 -0.203125 -0.1875 -0.484375q0 -0.265625 0.1875 -0.46875q0.203125 -0.203125 0.5 -0.203125q0.296875 0 0.484375 0.203125q0.203125 0.1875 0.203125 0.453125q0 0.296875 -0.203125 0.5q-0.1875 0.1875 -0.484375 0.1875zm4.9914856 8.609375q-0.859375 0 -1.640625 -0.234375q-0.78125 -0.25 -1.21875 -0.625l0.421875 -0.75q0.453125 0.34375 1.109375 0.5625q0.671875 0.21875 1.390625 0.21875q0.953125 0 1.40625 -0.296875q0.46875 -0.296875 0.46875 -0.84375q0 -0.390625 -0.25 -0.609375q-0.25 -0.21875 -0.640625 -0.328125q-0.390625 -0.109375 -1.03125 -0.21875q-0.84375 -0.15625 -1.375 -0.328125q-0.515625 -0.171875 -0.890625 -0.5625q-0.359375 -0.40625 -0.359375 -1.109375q0 -0.875 0.734375 -1.4375q0.734375 -0.5625 2.046875 -0.5625q0.671875 0 1.34375 0.1875q0.6875 0.171875 1.125 0.46875l-0.40625 0.75q-0.859375 -0.59375 -2.0625 -0.59375q-0.90625 0 -1.375 0.328125q-0.453125 0.3125 -0.453125 0.828125q0 0.40625 0.25 0.640625q0.265625 0.234375 0.65625 0.359375q0.390625 0.109375 1.0625 0.234375q0.84375 0.15625 1.34375 0.3125q0.515625 0.15625 0.875 0.546875q0.359375 0.390625 0.359375 1.0625q0 0.921875 -0.765625 1.46875q-0.765625 0.53125 -2.125 0.53125zm8.329926 -0.484375q-0.265625 0.234375 -0.671875 0.359375q-0.390625 0.125 -0.8125 0.125q-0.984375 0 -1.515625 -0.53125q-0.53125 -0.53125 -0.53125 -1.5l0 -4.234375l-1.25 0l0 -0.8125l1.25 0l0 -1.53125l0.9375 0l0 1.53125l2.140625 0l0 0.8125l-2.140625 0l0 4.171875q0 0.625 0.3125 0.953125q0.3125 0.328125 0.90625 0.328125q0.296875 0 0.5625 -0.09375q0.28125 -0.09375 0.46875 -0.265625l0.34375 0.6875zm1.7080688 -6.59375l0.953125 0l0 7.015625l-0.953125 0l0 -7.015625zm0.484375 -1.53125q-0.296875 0 -0.5 -0.1875q-0.1875 -0.203125 -0.1875 -0.484375q0 -0.265625 0.1875 -0.46875q0.203125 -0.203125 0.5 -0.203125q0.296875 0 0.484375 0.203125q0.203125 0.1875 0.203125 0.453125q0 0.296875 -0.203125 0.5q-0.1875 0.1875 -0.484375 0.1875zm6.679016 1.484375q1.3125 0 2.09375 0.765625q0.78125 0.765625 0.78125 2.234375l0 4.0625l-0.9375 0l0 -3.96875q0 -1.09375 -0.546875 -1.65625q-0.546875 -0.578125 -1.5625 -0.578125q-1.140625 0 -1.796875 0.671875q-0.65625 0.671875 -0.65625 1.859375l0 3.671875l-0.953125 0l0 -7.015625l0.90625 0l0 1.296875q0.390625 -0.640625 1.078125 -0.984375q0.6875 -0.359375 1.59375 -0.359375zm8.377899 7.125q-1.03125 0 -1.859375 -0.453125q-0.8125 -0.453125 -1.28125 -1.265625q-0.46875 -0.828125 -0.46875 -1.84375q0 -1.03125 0.46875 -1.84375q0.46875 -0.8125 1.28125 -1.265625q0.828125 -0.453125 1.859375 -0.453125q0.90625 0 1.625 0.359375q0.71875 0.34375 1.125 1.03125l-0.703125 0.46875q-0.34375 -0.515625 -0.890625 -0.765625q-0.53125 -0.265625 -1.15625 -0.265625q-0.75 0 -1.359375 0.34375q-0.609375 0.328125 -0.953125 0.953125q-0.328125 0.625 -0.328125 1.4375q0 0.8125 0.328125 1.4375q0.34375 0.609375 0.953125 0.953125q0.609375 0.34375 1.359375 0.34375q0.625 0 1.15625 -0.25q0.546875 -0.265625 0.890625 -0.78125l0.703125 0.484375q-0.40625 0.671875 -1.125 1.03125q-0.71875 0.34375 -1.625 0.34375zm8.380585 -0.484375q-0.265625 0.234375 -0.671875 0.359375q-0.390625 0.125 -0.8125 0.125q-0.984375 0 -1.515625 -0.53125q-0.53125 -0.53125 -0.53125 -1.5l0 -4.234375l-1.25 0l0 -0.8125l1.25 0l0 -1.53125l0.9375 0l0 1.53125l2.140625 0l0 0.8125l-2.140625 0l0 4.171875q0 0.625 0.3125 0.953125q0.3125 0.328125 0.90625 0.328125q0.296875 0 0.5625 -0.09375q0.28125 -0.09375 0.46875 -0.265625l0.34375 0.6875zm1.7080688 -6.59375l0.953125 0l0 7.015625l-0.953125 0l0 -7.015625zm0.484375 -1.53125q-0.296875 0 -0.5 -0.1875q-0.1875 -0.203125 -0.1875 -0.484375q0 -0.265625 0.1875 -0.46875q0.203125 -0.203125 0.5 -0.203125q0.296875 0 0.484375 0.203125q0.203125 0.1875 0.203125 0.453125q0 0.296875 -0.203125 0.5q-0.1875 0.1875 -0.484375 0.1875zm5.9758606 8.609375q-1.015625 0 -1.828125 -0.453125q-0.8125 -0.46875 -1.28125 -1.28125q-0.46875 -0.8125 -0.46875 -1.828125q0 -1.03125 0.46875 -1.84375q0.46875 -0.8125 1.28125 -1.265625q0.8125 -0.453125 1.828125 -0.453125q1.015625 0 1.828125 0.453125q0.8125 0.453125 1.265625 1.265625q0.46875 0.8125 0.46875 1.84375q0 1.015625 -0.46875 1.828125q-0.453125 0.8125 -1.265625 1.28125q-0.8125 0.453125 -1.828125 0.453125zm0 -0.828125q0.75 0 1.34375 -0.34375q0.59375 -0.34375 0.921875 -0.96875q0.328125 -0.625 0.328125 -1.421875q0 -0.8125 -0.328125 -1.4375q-0.328125 -0.625 -0.921875 -0.953125q-0.59375 -0.34375 -1.34375 -0.34375q-0.75 0 -1.34375 0.34375q-0.59375 0.328125 -0.9375 0.953125q-0.328125 0.625 -0.328125 1.4375q0 0.796875 0.328125 1.421875q0.34375 0.625 0.9375 0.96875q0.59375 0.34375 1.34375 0.34375zm9.059845 -6.296875q1.3125 0 2.09375 0.765625q0.78125 0.765625 0.78125 2.234375l0 4.0625l-0.9375 0l0 -3.96875q0 -1.09375 -0.546875 -1.65625q-0.546875 -0.578125 -1.5625 -0.578125q-1.140625 0 -1.796875 0.671875q-0.65625 0.671875 -0.65625 1.859375l0 3.671875l-0.953125 0l0 -7.015625l0.90625 0l0 1.296875q0.390625 -0.640625 1.078125 -0.984375q0.6875 -0.359375 1.59375 -0.359375z" fill-rule="nonzero"/><path fill="#000000" fill-opacity="0.0" d="m237.39098 458.82925l222.55083 0l0 96.02072l-222.55083 0z" fill-rule="evenodd"/><path fill="#000000" d="m260.438 480.7074q-1.8125 0 -2.828125 -1.03125q-1.015625 -1.046875 -1.015625 -3.03125l0 -5.34375l0.984375 0l0 5.296875q0 1.625 0.734375 2.4375q0.734375 0.796875 2.125 0.796875q1.390625 0 2.125 -0.796875q0.734375 -0.8125 0.734375 -2.4375l0 -5.296875l0.96875 0l0 5.34375q0 1.984375 -1.015625 3.03125q-1.0 1.03125 -2.8125 1.03125zm14.587067 -9.40625l0 9.328125l-0.8125 0l-6.0 -7.578125l0 7.578125l-0.984375 0l0 -9.328125l0.8125 0l6.015625 7.5625l0 -7.5625l0.96875 0zm3.0388489 0l0.984375 0l0 9.328125l-0.984375 0l0 -9.328125zm11.6840515 0l-4.140625 9.328125l-0.96875 0l-4.125 -9.328125l1.0625 0l3.5625 8.109375l3.609375 -8.109375l1.0 0zm7.931122 8.46875l0 0.859375l-6.59375 0l0 -9.328125l6.40625 0l0 0.84375l-5.421875 0l0 3.328125l4.828125 0l0 0.84375l-4.828125 0l0 3.453125l5.609375 0zm8.697723 0.859375l-2.140625 -3.0q-0.359375 0.046875 -0.734375 0.046875l-2.515625 0l0 2.953125l-0.984375 0l0 -9.328125l3.5 0q1.78125 0 2.796875 0.859375q1.015625 0.84375 1.015625 2.34375q0 1.09375 -0.5625 1.84375q-0.546875 0.75 -1.578125 1.078125l2.28125 3.203125l-1.078125 0zm-2.90625 -3.796875q1.390625 0 2.125 -0.609375q0.734375 -0.625 0.734375 -1.71875q0 -1.140625 -0.734375 -1.75q-0.734375 -0.609375 -2.125 -0.609375l-2.484375 0l0 4.6875l2.484375 0zm8.745575 3.875q-1.046875 0 -2.0 -0.328125q-0.953125 -0.34375 -1.46875 -0.890625l0.390625 -0.75q0.5 0.5 1.34375 0.8125q0.84375 0.3125 1.734375 0.3125q1.25 0 1.875 -0.453125q0.625 -0.453125 0.625 -1.1875q0 -0.5625 -0.34375 -0.890625q-0.328125 -0.34375 -0.828125 -0.515625q-0.484375 -0.1875 -1.375 -0.40625q-1.046875 -0.265625 -1.671875 -0.5q-0.625 -0.25 -1.078125 -0.75q-0.4375 -0.515625 -0.4375 -1.375q0 -0.71875 0.359375 -1.296875q0.375 -0.578125 1.140625 -0.921875q0.78125 -0.34375 1.9375 -0.34375q0.796875 0 1.5625 0.21875q0.765625 0.21875 1.328125 0.609375l-0.34375 0.78125q-0.578125 -0.390625 -1.25 -0.578125q-0.65625 -0.1875 -1.296875 -0.1875q-1.234375 0 -1.859375 0.46875q-0.609375 0.46875 -0.609375 1.21875q0 0.5625 0.328125 0.90625q0.34375 0.328125 0.859375 0.515625q0.515625 0.171875 1.375 0.390625q1.03125 0.25 1.65625 0.5q0.640625 0.25 1.078125 0.75q0.453125 0.5 0.453125 1.34375q0 0.703125 -0.390625 1.296875q-0.375 0.578125 -1.171875 0.921875q-0.78125 0.328125 -1.921875 0.328125zm5.6186523 -9.40625l0.984375 0l0 9.328125l-0.984375 0l0 -9.328125zm5.8375854 0.84375l-3.28125 0l0 -0.84375l7.546875 0l0 0.84375l-3.28125 0l0 8.484375l-0.984375 0l0 -8.484375zm8.974274 5.265625l0 3.21875l-0.96875 0l0 -3.21875l-3.734375 -6.109375l1.046875 0l3.203125 5.234375l3.203125 -5.234375l0.984375 0l-3.734375 6.109375zm12.830292 3.296875q-1.375 0 -2.515625 -0.609375q-1.125 -0.625 -1.765625 -1.703125q-0.625 -1.078125 -0.625 -2.4375q0 -1.34375 0.625 -2.421875q0.640625 -1.078125 1.765625 -1.6875q1.140625 -0.625 2.515625 -0.625q1.390625 0 2.5 0.609375q1.109375 0.609375 1.75 1.703125q0.640625 1.078125 0.640625 2.421875q0 1.359375 -0.640625 2.453125q-0.640625 1.078125 -1.75 1.6875q-1.109375 0.609375 -2.5 0.609375zm0 -0.875q1.109375 0 2.0 -0.5q0.890625 -0.5 1.390625 -1.390625q0.515625 -0.890625 0.515625 -1.984375q0 -1.078125 -0.515625 -1.96875q-0.5 -0.890625 -1.390625 -1.390625q-0.890625 -0.5 -2.0 -0.5q-1.109375 0 -2.015625 0.5q-0.890625 0.5 -1.40625 1.390625q-0.5 0.890625 -0.5 1.96875q0 1.09375 0.5 1.984375q0.515625 0.890625 1.40625 1.390625q0.90625 0.5 2.015625 0.5zm8.088501 -7.6875l0 3.671875l4.828125 0l0 0.859375l-4.828125 0l0 3.953125l-0.984375 0l0 -9.328125l6.40625 0l0 0.84375l-5.421875 0zm13.522369 8.5625q-1.046875 0 -2.0 -0.328125q-0.953125 -0.34375 -1.46875 -0.890625l0.390625 -0.75q0.5 0.5 1.34375 0.8125q0.84375 0.3125 1.734375 0.3125q1.25 0 1.875 -0.453125q0.625 -0.453125 0.625 -1.1875q0 -0.5625 -0.34375 -0.890625q-0.328125 -0.34375 -0.828125 -0.515625q-0.484375 -0.1875 -1.375 -0.40625q-1.046875 -0.265625 -1.671875 -0.5q-0.625 -0.25 -1.078125 -0.75q-0.4375 -0.515625 -0.4375 -1.375q0 -0.71875 0.359375 -1.296875q0.375 -0.578125 1.140625 -0.921875q0.78125 -0.34375 1.9375 -0.34375q0.796875 0 1.5625 0.21875q0.765625 0.21875 1.328125 0.609375l-0.34375 0.78125q-0.578125 -0.390625 -1.25 -0.578125q-0.65625 -0.1875 -1.296875 -0.1875q-1.234375 0 -1.859375 0.46875q-0.609375 0.46875 -0.609375 1.21875q0 0.5625 0.328125 0.90625q0.34375 0.328125 0.859375 0.515625q0.515625 0.171875 1.375 0.390625q1.03125 0.25 1.65625 0.5q0.640625 0.25 1.078125 0.75q0.453125 0.5 0.453125 1.34375q0 0.703125 -0.390625 1.296875q-0.375 0.578125 -1.171875 0.921875q-0.78125 0.328125 -1.921875 0.328125zm13.415497 -9.40625l0 9.328125l-0.96875 0l0 -4.3125l-5.84375 0l0 4.3125l-0.984375 0l0 -9.328125l0.984375 0l0 4.15625l5.84375 0l0 -4.15625l0.96875 0zm9.632599 8.46875l0 0.859375l-6.59375 0l0 -9.328125l6.40625 0l0 0.84375l-5.421875 0l0 3.328125l4.828125 0l0 0.84375l-4.828125 0l0 3.453125l5.609375 0zm3.307129 -7.625l0 3.671875l4.828125 0l0 0.859375l-4.828125 0l0 3.953125l-0.984375 0l0 -9.328125l6.40625 0l0 0.84375l-5.421875 0zm8.436676 0l0 3.671875l4.828125 0l0 0.859375l-4.828125 0l0 3.953125l-0.984375 0l0 -9.328125l6.40625 0l0 0.84375l-5.421875 0zm7.452301 -0.84375l0.984375 0l0 9.328125l-0.984375 0l0 -9.328125zm10.618835 8.46875l0 0.859375l-6.59375 0l0 -9.328125l6.40625 0l0 0.84375l-5.421875 0l0 3.328125l4.828125 0l0 0.84375l-4.828125 0l0 3.453125l5.609375 0zm2.3227234 -8.46875l0.984375 0l0 8.46875l5.234375 0l0 0.859375l-6.21875 0l0 -9.328125zm7.8502502 0l3.796875 0q1.484375 0 2.609375 0.59375q1.140625 0.59375 1.765625 1.65625q0.625 1.046875 0.625 2.40625q0 1.359375 -0.625 2.421875q-0.625 1.0625 -1.765625 1.65625q-1.125 0.59375 -2.609375 0.59375l-3.796875 0l0 -9.328125zm3.75 8.46875q1.21875 0 2.140625 -0.484375q0.921875 -0.484375 1.421875 -1.34375q0.515625 -0.859375 0.515625 -1.984375q0 -1.109375 -0.515625 -1.96875q-0.5 -0.859375 -1.421875 -1.34375q-0.921875 -0.5 -2.140625 -0.5l-2.765625 0l0 7.625l2.765625 0zm6.8985596 -0.53125q0.3125 0 0.5 0.21875q0.203125 0.203125 0.203125 0.5q0 0.171875 -0.046875 0.359375q-0.03125 0.171875 -0.125 0.421875l-0.5625 1.84375l-0.640625 0l0.453125 -1.9375q-0.21875 -0.0625 -0.359375 -0.234375q-0.125 -0.1875 -0.125 -0.453125q0 -0.296875 0.203125 -0.5q0.203125 -0.21875 0.5 -0.21875z" fill-rule="nonzero"/><path fill="#000000" d="m343.9316 498.7074q-1.8125 0 -2.828125 -1.03125q-1.015625 -1.046875 -1.015625 -3.03125l0 -5.34375l0.984375 0l0 5.296875q0 1.625 0.734375 2.4375q0.734375 0.796875 2.125 0.796875q1.390625 0 2.125 -0.796875q0.734375 -0.8125 0.734375 -2.4375l0 -5.296875l0.96875 0l0 5.34375q0 1.984375 -1.015625 3.03125q-1.0 1.03125 -2.8125 1.03125zm9.680817 -4.46875l-1.90625 1.9375l0 2.453125l-0.984375 0l0 -9.328125l0.984375 0l0 5.640625l5.484375 -5.640625l1.125 0l-4.03125 4.21875l4.3125 5.109375l-1.171875 0l-3.8125 -4.390625z" fill-rule="nonzero"/><path fill="#000000" fill-opacity="0.0" d="m320.2274 315.18524l56.87802 0l0 41.799072l-56.87802 0z" fill-rule="evenodd"/><path fill="#000000" d="m341.3643 334.1271l0 1.578125l-6.359375 0l0 -1.265625l3.25 -3.046875q0.515625 -0.5 0.6875 -0.84375q0.1875 -0.359375 0.1875 -0.71875q0 -0.5 -0.34375 -0.765625q-0.34375 -0.265625 -1.0 -0.265625q-0.5625 0 -1.0 0.21875q-0.4375 0.203125 -0.75 0.609375l-1.40625 -0.90625q0.484375 -0.734375 1.34375 -1.140625q0.875 -0.421875 1.984375 -0.421875q0.9375 0 1.640625 0.3125q0.703125 0.296875 1.09375 0.859375q0.390625 0.5625 0.390625 1.3125q0 0.6875 -0.296875 1.296875q-0.28125 0.59375 -1.109375 1.359375l-1.9375 1.828125l3.625 0zm4.368561 1.71875q-1.03125 0 -1.859375 -0.515625q-0.8125 -0.515625 -1.28125 -1.484375q-0.453125 -0.984375 -0.453125 -2.34375q0 -1.359375 0.453125 -2.328125q0.46875 -0.984375 1.28125 -1.5q0.828125 -0.515625 1.859375 -0.515625q1.046875 0 1.859375 0.515625q0.828125 0.515625 1.28125 1.5q0.46875 0.96875 0.46875 2.328125q0 1.359375 -0.46875 2.34375q-0.453125 0.96875 -1.28125 1.484375q-0.8125 0.515625 -1.859375 0.515625zm0 -1.640625q0.78125 0 1.21875 -0.65625q0.4375 -0.65625 0.4375 -2.046875q0 -1.375 -0.4375 -2.03125q-0.4375 -0.671875 -1.21875 -0.671875q-0.75 0 -1.1875 0.671875q-0.4375 0.65625 -0.4375 2.03125q0 1.390625 0.4375 2.046875q0.4375 0.65625 1.1875 0.65625zm7.716675 -6.90625l0 8.40625l-1.9375 0l0 -6.84375l-1.6875 0l0 -1.5625l3.625 0zm9.157166 6.640625l-1.359375 0l0 1.765625l-1.90625 0l0 -1.765625l-4.515625 0l0 -1.3125l3.953125 -5.328125l2.046875 0l-3.671875 5.0625l2.25 0l0 -1.578125l1.84375 0l0 1.578125l1.359375 0l0 1.578125z" fill-rule="nonzero"/><path fill="#000000" fill-opacity="0.0" d="m551.31036 332.89133l0 0c0 -21.369812 17.323608 -38.69345 38.69342 -38.69345l0 0c10.262146 0 20.104004 4.076599 27.360413 11.333038c7.2564087 7.256439 11.333069 17.098267 11.333069 27.360413l0 0c0 21.369812 -17.32367 38.69345 -38.69348 38.69345l0 0c-21.369812 0 -38.69342 -17.323639 -38.69342 -38.69345z" fill-rule="evenodd"/><path stroke="#a72a1e" stroke-width="4.0" stroke-linejoin="round" stroke-linecap="butt" d="m551.31036 332.89133l0 0c0 -21.369812 17.323608 -38.69345 38.69342 -38.69345l0 0c10.262146 0 20.104004 4.076599 27.360413 11.333038c7.2564087 7.256439 11.333069 17.098267 11.333069 27.360413l0 0c0 21.369812 -17.32367 38.69345 -38.69348 38.69345l0 0c-21.369812 0 -38.69342 -17.323639 -38.69342 -38.69345z" fill-rule="evenodd"/><path fill="#000000" fill-opacity="0.0" d="m478.72748 385.8401l222.55084 0l0 58.128082l-222.55084 0z" fill-rule="evenodd"/><path fill="#000000" d="m536.5563 418.78253q1.953125 0 3.0625 0.9375q1.125 0.9375 1.125 2.59375q0 1.640625 -1.125 2.578125q-1.109375 0.921875 -3.0625 0.921875l-2.765625 0l0 3.234375l-1.078125 0l0 -10.265625l3.84375 0zm-0.03125 6.078125q1.515625 0 2.328125 -0.671875q0.8125 -0.671875 0.8125 -1.875q0 -1.25 -0.8125 -1.921875q-0.8125 -0.671875 -2.328125 -0.671875l-2.734375 0l0 5.140625l2.734375 0zm10.413818 -3.578125q1.453125 0 2.3125 0.84375q0.859375 0.84375 0.859375 2.453125l0 4.46875l-1.046875 0l0 -4.375q0 -1.1875 -0.609375 -1.8125q-0.59375 -0.640625 -1.703125 -0.640625q-1.25 0 -1.984375 0.75q-0.71875 0.734375 -0.71875 2.03125l0 4.046875l-1.03125 0l0 -10.875l1.03125 0l0 4.515625q0.4375 -0.671875 1.171875 -1.03125q0.75 -0.375 1.71875 -0.375zm6.2192383 -2.5l4.171875 0q1.625 0 2.875 0.65625q1.25 0.65625 1.9375 1.828125q0.6875 1.15625 0.6875 2.65625q0 1.484375 -0.6875 2.65625q-0.6875 1.171875 -1.9375 1.828125q-1.25 0.640625 -2.875 0.640625l-4.171875 0l0 -10.265625zm4.125 9.328125q1.34375 0 2.34375 -0.53125q1.015625 -0.546875 1.578125 -1.484375q0.5625 -0.953125 0.5625 -2.171875q0 -1.234375 -0.5625 -2.171875q-0.5625 -0.953125 -1.578125 -1.484375q-1.0 -0.546875 -2.34375 -0.546875l-3.046875 0l0 8.390625l3.046875 0zm15.664795 -9.328125q1.953125 0 3.0625 0.9375q1.125 0.9375 1.125 2.59375q0 1.640625 -1.125 2.578125q-1.109375 0.921875 -3.0625 0.921875l-2.765625 0l0 3.234375l-1.078125 0l0 -10.265625l3.84375 0zm-0.03125 6.078125q1.515625 0 2.328125 -0.671875q0.8125 -0.671875 0.8125 -1.875q0 -1.25 -0.8125 -1.921875q-0.8125 -0.671875 -2.328125 -0.671875l-2.734375 0l0 5.140625l2.734375 0zm10.413818 -3.578125q1.453125 0 2.3125 0.84375q0.859375 0.84375 0.859375 2.453125l0 4.46875l-1.046875 0l0 -4.375q0 -1.1875 -0.609375 -1.8125q-0.59375 -0.640625 -1.703125 -0.640625q-1.25 0 -1.984375 0.75q-0.71875 0.734375 -0.71875 2.03125l0 4.046875l-1.03125 0l0 -10.875l1.03125 0l0 4.515625q0.4375 -0.671875 1.171875 -1.03125q0.75 -0.375 1.71875 -0.375zm6.0004883 0.0625l1.03125 0l0 7.703125l-1.03125 0l0 -7.703125zm0.53125 -1.6875q-0.328125 0 -0.546875 -0.21875q-0.21875 -0.21875 -0.21875 -0.53125q0 -0.296875 0.21875 -0.515625q0.21875 -0.21875 0.546875 -0.21875q0.3125 0 0.53125 0.21875q0.21875 0.203125 0.21875 0.5q0 0.328125 -0.21875 0.546875q-0.21875 0.21875 -0.53125 0.21875zm3.411255 -1.484375l1.03125 0l0 10.875l-1.03125 0l0 -10.875zm7.098816 10.953125q-1.125 0 -2.015625 -0.5q-0.890625 -0.515625 -1.40625 -1.40625q-0.515625 -0.890625 -0.515625 -2.03125q0 -1.125 0.515625 -2.015625q0.515625 -0.890625 1.40625 -1.390625q0.890625 -0.5 2.015625 -0.5q1.109375 0 2.0 0.5q0.890625 0.5 1.390625 1.390625q0.515625 0.890625 0.515625 2.015625q0 1.140625 -0.515625 2.03125q-0.5 0.890625 -1.390625 1.40625q-0.890625 0.5 -2.0 0.5zm0 -0.921875q0.8125 0 1.46875 -0.375q0.65625 -0.375 1.015625 -1.0625q0.359375 -0.6875 0.359375 -1.578125q0 -0.875 -0.359375 -1.5625q-0.359375 -0.6875 -1.015625 -1.0625q-0.65625 -0.375 -1.46875 -0.375q-0.828125 0 -1.484375 0.375q-0.640625 0.375 -1.015625 1.0625q-0.375 0.6875 -0.375 1.5625q0 0.890625 0.375 1.578125q0.375 0.6875 1.015625 1.0625q0.65625 0.375 1.484375 0.375zm8.095764 0.921875q-0.9375 0 -1.796875 -0.265625q-0.859375 -0.28125 -1.34375 -0.6875l0.46875 -0.828125q0.484375 0.390625 1.21875 0.640625q0.734375 0.234375 1.53125 0.234375q1.046875 0 1.546875 -0.328125q0.515625 -0.34375 0.515625 -0.9375q0 -0.421875 -0.28125 -0.65625q-0.28125 -0.25 -0.703125 -0.375q-0.421875 -0.125 -1.125 -0.25q-0.9375 -0.171875 -1.515625 -0.34375q-0.5625 -0.1875 -0.96875 -0.625q-0.40625 -0.453125 -0.40625 -1.21875q0 -0.96875 0.796875 -1.578125q0.8125 -0.625 2.25 -0.625q0.75 0 1.5 0.203125q0.75 0.1875 1.234375 0.515625l-0.453125 0.828125q-0.953125 -0.65625 -2.28125 -0.65625q-0.984375 0 -1.5 0.359375q-0.5 0.34375 -0.5 0.921875q0 0.4375 0.28125 0.703125q0.28125 0.265625 0.703125 0.390625q0.4375 0.125 1.1875 0.25q0.921875 0.171875 1.46875 0.359375q0.5625 0.171875 0.953125 0.59375q0.40625 0.421875 0.40625 1.171875q0 1.015625 -0.84375 1.609375q-0.84375 0.59375 -2.34375 0.59375zm8.260681 0q-1.125 0 -2.015625 -0.5q-0.890625 -0.515625 -1.40625 -1.40625q-0.515625 -0.890625 -0.515625 -2.03125q0 -1.125 0.515625 -2.015625q0.515625 -0.890625 1.40625 -1.390625q0.890625 -0.5 2.015625 -0.5q1.109375 0 2.0 0.5q0.890625 0.5 1.390625 1.390625q0.515625 0.890625 0.515625 2.015625q0 1.140625 -0.515625 2.03125q-0.5 0.890625 -1.390625 1.40625q-0.890625 0.5 -2.0 0.5zm0 -0.921875q0.8125 0 1.46875 -0.375q0.65625 -0.375 1.015625 -1.0625q0.359375 -0.6875 0.359375 -1.578125q0 -0.875 -0.359375 -1.5625q-0.359375 -0.6875 -1.015625 -1.0625q-0.65625 -0.375 -1.46875 -0.375q-0.828125 0 -1.484375 0.375q-0.640625 0.375 -1.015625 1.0625q-0.375 0.6875 -0.375 1.5625q0 0.890625 0.375 1.578125q0.375 0.6875 1.015625 1.0625q0.65625 0.375 1.484375 0.375zm10.001953 -6.921875q1.078125 0 1.953125 0.5q0.890625 0.484375 1.390625 1.375q0.5 0.890625 0.5 2.03125q0 1.15625 -0.5 2.0625q-0.5 0.890625 -1.375 1.390625q-0.875 0.484375 -1.96875 0.484375q-0.9375 0 -1.703125 -0.390625q-0.75 -0.390625 -1.234375 -1.140625l0 4.296875l-1.03125 0l0 -10.546875l1.0 0l0 1.515625q0.46875 -0.765625 1.234375 -1.171875q0.765625 -0.40625 1.734375 -0.40625zm-0.078125 6.921875q0.8125 0 1.46875 -0.375q0.65625 -0.375 1.03125 -1.0625q0.375 -0.6875 0.375 -1.578125q0 -0.875 -0.375 -1.546875q-0.375 -0.6875 -1.03125 -1.0625q-0.65625 -0.390625 -1.46875 -0.390625q-0.8125 0 -1.46875 0.390625q-0.65625 0.375 -1.03125 1.0625q-0.359375 0.671875 -0.359375 1.546875q0 0.890625 0.359375 1.578125q0.375 0.6875 1.03125 1.0625q0.65625 0.375 1.46875 0.375zm9.968262 -6.921875q1.453125 0 2.3125 0.84375q0.859375 0.84375 0.859375 2.453125l0 4.46875l-1.046875 0l0 -4.375q0 -1.1875 -0.609375 -1.8125q-0.59375 -0.640625 -1.703125 -0.640625q-1.25 0 -1.984375 0.75q-0.71875 0.734375 -0.71875 2.03125l0 4.046875l-1.03125 0l0 -10.875l1.03125 0l0 4.515625q0.4375 -0.671875 1.171875 -1.03125q0.75 -0.375 1.71875 -0.375zm12.32251 0.0625l-3.84375 8.625q-0.46875 1.09375 -1.09375 1.546875q-0.609375 0.453125 -1.46875 0.453125q-0.5625 0 -1.046875 -0.1875q-0.484375 -0.171875 -0.828125 -0.515625l0.484375 -0.78125q0.578125 0.578125 1.40625 0.578125q0.515625 0 0.890625 -0.296875q0.375 -0.28125 0.703125 -0.984375l0.328125 -0.75l-3.4375 -7.6875l1.078125 0l2.90625 6.546875l2.90625 -6.546875l1.015625 0z" fill-rule="nonzero"/><path fill="#000000" fill-opacity="0.0" d="m478.7284 458.22348l222.55084 0l0 96.02072l-222.55084 0z" fill-rule="evenodd"/><path fill="#000000" d="m522.3042 480.1016q-1.390625 0 -2.515625 -0.609375q-1.109375 -0.609375 -1.75 -1.6875q-0.625 -1.09375 -0.625 -2.453125q0 -1.34375 0.625 -2.421875q0.640625 -1.09375 1.765625 -1.703125q1.125 -0.609375 2.5 -0.609375q1.046875 0 1.921875 0.34375q0.890625 0.34375 1.5 1.015625l-0.625 0.625q-1.09375 -1.109375 -2.765625 -1.109375q-1.109375 0 -2.015625 0.515625q-0.90625 0.5 -1.421875 1.390625q-0.5 0.875 -0.5 1.953125q0 1.09375 0.5 1.984375q0.515625 0.875 1.421875 1.390625q0.90625 0.5 2.015625 0.5q1.6875 0 2.765625 -1.125l0.625 0.625q-0.609375 0.671875 -1.5 1.03125q-0.890625 0.34375 -1.921875 0.34375zm12.114136 -0.9375l0 0.859375l-6.59375 0l0 -9.328125l6.40625 0l0 0.84375l-5.421875 0l0 3.328125l4.828125 0l0 0.84375l-4.828125 0l0 3.453125l5.609375 0zm10.119629 -8.46875l0 9.328125l-0.8125 0l-6.0 -7.578125l0 7.578125l-0.984375 0l0 -9.328125l0.8125 0l6.015625 7.5625l0 -7.5625l0.96875 0zm4.8513184 0.84375l-3.28125 0l0 -0.84375l7.546875 0l0 0.84375l-3.28125 0l0 8.484375l-0.984375 0l0 -8.484375zm12.21283 8.484375l-2.140625 -3.0q-0.359375 0.046875 -0.734375 0.046875l-2.515625 0l0 2.953125l-0.984375 0l0 -9.328125l3.5 0q1.78125 0 2.796875 0.859375q1.015625 0.84375 1.015625 2.34375q0 1.09375 -0.5625 1.84375q-0.546875 0.75 -1.578125 1.078125l2.28125 3.203125l-1.078125 0zm-2.90625 -3.796875q1.390625 0 2.125 -0.609375q0.734375 -0.625 0.734375 -1.71875q0 -1.140625 -0.734375 -1.75q-0.734375 -0.609375 -2.125 -0.609375l-2.484375 0l0 4.6875l2.484375 0zm12.026794 1.296875l-5.203125 0l-1.125 2.5l-1.015625 0l4.265625 -9.328125l0.96875 0l4.265625 9.328125l-1.046875 0l-1.109375 -2.5zm-0.359375 -0.796875l-2.25 -5.0l-2.234375 5.0l4.484375 0zm4.0562744 -6.03125l0.984375 0l0 8.46875l5.234375 0l0 0.859375l-6.21875 0l0 -9.328125zm17.935913 8.46875l0 0.859375l-6.59375 0l0 -9.328125l6.40625 0l0 0.84375l-5.421875 0l0 3.328125l4.828125 0l0 0.84375l-4.828125 0l0 3.453125l5.609375 0zm6.088379 0.9375q-1.8125 0 -2.828125 -1.03125q-1.015625 -1.046875 -1.015625 -3.03125l0 -5.34375l0.984375 0l0 5.296875q0 1.625 0.734375 2.4375q0.734375 0.796875 2.125 0.796875q1.390625 0 2.125 -0.796875q0.734375 -0.8125 0.734375 -2.4375l0 -5.296875l0.96875 0l0 5.34375q0 1.984375 -1.015625 3.03125q-1.0 1.03125 -2.8125 1.03125zm13.165222 -0.078125l-2.140625 -3.0q-0.359375 0.046875 -0.734375 0.046875l-2.515625 0l0 2.953125l-0.984375 0l0 -9.328125l3.5 0q1.78125 0 2.796875 0.859375q1.015625 0.84375 1.015625 2.34375q0 1.09375 -0.5625 1.84375q-0.546875 0.75 -1.578125 1.078125l2.28125 3.203125l-1.078125 0zm-2.90625 -3.796875q1.390625 0 2.125 -0.609375q0.734375 -0.625 0.734375 -1.71875q0 -1.140625 -0.734375 -1.75q-0.734375 -0.609375 -2.125 -0.609375l-2.484375 0l0 4.6875l2.484375 0zm10.245544 3.875q-1.375 0 -2.515625 -0.609375q-1.125 -0.625 -1.765625 -1.703125q-0.625 -1.078125 -0.625 -2.4375q0 -1.34375 0.625 -2.421875q0.640625 -1.078125 1.765625 -1.6875q1.140625 -0.625 2.515625 -0.625q1.390625 0 2.5 0.609375q1.109375 0.609375 1.75 1.703125q0.640625 1.078125 0.640625 2.421875q0 1.359375 -0.640625 2.453125q-0.640625 1.078125 -1.75 1.6875q-1.109375 0.609375 -2.5 0.609375zm0 -0.875q1.109375 0 2.0 -0.5q0.890625 -0.5 1.390625 -1.390625q0.515625 -0.890625 0.515625 -1.984375q0 -1.078125 -0.515625 -1.96875q-0.5 -0.890625 -1.390625 -1.390625q-0.890625 -0.5 -2.0 -0.5q-1.109375 0 -2.015625 0.5q-0.890625 0.5 -1.40625 1.390625q-0.5 0.890625 -0.5 1.96875q0 1.09375 0.5 1.984375q0.515625 0.890625 1.40625 1.390625q0.90625 0.5 2.015625 0.5zm10.604126 -8.53125q1.78125 0 2.796875 0.859375q1.015625 0.84375 1.015625 2.34375q0 1.484375 -1.015625 2.328125q-1.015625 0.84375 -2.796875 0.84375l-2.515625 0l0 2.953125l-0.984375 0l0 -9.328125l3.5 0zm-0.03125 5.515625q1.390625 0 2.125 -0.609375q0.734375 -0.609375 0.734375 -1.703125q0 -1.140625 -0.734375 -1.75q-0.734375 -0.609375 -2.125 -0.609375l-2.484375 0l0 4.671875l2.484375 0zm12.561218 2.953125l0 0.859375l-6.59375 0l0 -9.328125l6.40625 0l0 0.84375l-5.421875 0l0 3.328125l4.828125 0l0 0.84375l-4.828125 0l0 3.453125l5.609375 0zm8.182129 -1.640625l-5.203125 0l-1.125 2.5l-1.015625 0l4.265625 -9.328125l0.96875 0l4.265625 9.328125l-1.046875 0l-1.109375 -2.5zm-0.359375 -0.796875l-2.25 -5.0l-2.234375 5.0l4.484375 0zm11.853088 -6.03125l0 9.328125l-0.8125 0l-6.0 -7.578125l0 7.578125l-0.984375 0l0 -9.328125l0.8125 0l6.015625 7.5625l0 -7.5625l0.96875 0z" fill-rule="nonzero"/><path fill="#000000" d="m514.5118 498.1016q-1.8125 0 -2.8281555 -1.03125q-1.015625 -1.046875 -1.015625 -3.03125l0 -5.34375l0.984375 0l0 5.296875q0 1.625 0.7344055 2.4375q0.734375 0.796875 2.125 0.796875q1.390625 0 2.125 -0.796875q0.734375 -0.8125 0.734375 -2.4375l0 -5.296875l0.96875 0l0 5.34375q0 1.984375 -1.015625 3.03125q-1.0 1.03125 -2.8125 1.03125zm14.587036 -9.40625l0 9.328125l-0.8125 0l-6.0 -7.578125l0 7.578125l-0.984375 0l0 -9.328125l0.8125 0l6.015625 7.5625l0 -7.5625l0.96875 0zm3.0388794 0l0.984375 0l0 9.328125l-0.984375 0l0 -9.328125zm11.684021 0l-4.140625 9.328125l-0.96875 0l-4.125 -9.328125l1.0625 0l3.5625 8.109375l3.609375 -8.109375l1.0 0zm7.9311523 8.46875l0 0.859375l-6.59375 0l0 -9.328125l6.40625 0l0 0.84375l-5.421875 0l0 3.328125l4.828125 0l0 0.84375l-4.828125 0l0 3.453125l5.609375 0zm8.697693 0.859375l-2.140625 -3.0q-0.359375 0.046875 -0.734375 0.046875l-2.515625 0l0 2.953125l-0.984375 0l0 -9.328125l3.5 0q1.78125 0 2.796875 0.859375q1.015625 0.84375 1.015625 2.34375q0 1.09375 -0.5625 1.84375q-0.546875 0.75 -1.578125 1.078125l2.28125 3.203125l-1.078125 0zm-2.90625 -3.796875q1.390625 0 2.125 -0.609375q0.734375 -0.625 0.734375 -1.71875q0 -1.140625 -0.734375 -1.75q-0.734375 -0.609375 -2.125 -0.609375l-2.484375 0l0 4.6875l2.484375 0zm8.745605 3.875q-1.046875 0 -2.0 -0.328125q-0.953125 -0.34375 -1.46875 -0.890625l0.390625 -0.75q0.5 0.5 1.34375 0.8125q0.84375 0.3125 1.734375 0.3125q1.25 0 1.875 -0.453125q0.625 -0.453125 0.625 -1.1875q0 -0.5625 -0.34375 -0.890625q-0.328125 -0.34375 -0.828125 -0.515625q-0.484375 -0.1875 -1.375 -0.40625q-1.046875 -0.265625 -1.671875 -0.5q-0.625 -0.25 -1.078125 -0.75q-0.4375 -0.515625 -0.4375 -1.375q0 -0.71875 0.359375 -1.296875q0.375 -0.578125 1.140625 -0.921875q0.78125 -0.34375 1.9375 -0.34375q0.796875 0 1.5625 0.21875q0.765625 0.21875 1.328125 0.609375l-0.34375 0.78125q-0.578125 -0.390625 -1.25 -0.578125q-0.65625 -0.1875 -1.296875 -0.1875q-1.234375 0 -1.859375 0.46875q-0.609375 0.46875 -0.609375 1.21875q0 0.5625 0.328125 0.90625q0.34375 0.328125 0.859375 0.515625q0.515625 0.171875 1.375 0.390625q1.03125 0.25 1.65625 0.5q0.640625 0.25 1.078125 0.75q0.453125 0.5 0.453125 1.34375q0 0.703125 -0.390625 1.296875q-0.375 0.578125 -1.171875 0.921875q-0.78125 0.328125 -1.921875 0.328125zm5.6186523 -9.40625l0.984375 0l0 9.328125l-0.984375 0l0 -9.328125zm5.8375854 0.84375l-3.28125 0l0 -0.84375l7.546875 0l0 0.84375l-3.28125 0l0 8.484375l-0.984375 0l0 -8.484375zm8.974243 5.265625l0 3.21875l-0.96875 0l0 -3.21875l-3.734375 -6.109375l1.046875 0l3.203125 5.234375l3.203125 -5.234375l0.984375 0l-3.734375 6.109375zm4.6864624 1.828125q0.3125 0 0.5 0.21875q0.203125 0.203125 0.203125 0.5q0 0.171875 -0.046875 0.359375q-0.03125 0.171875 -0.125 0.421875l-0.5625 1.84375l-0.640625 0l0.453125 -1.9375q-0.21875 -0.0625 -0.359375 -0.234375q-0.125 -0.1875 -0.125 -0.453125q0 -0.296875 0.203125 -0.5q0.203125 -0.21875 0.5 -0.21875zm12.286255 -3.421875q0.921875 0.203125 1.421875 0.796875q0.5 0.59375 0.5 1.515625q0 1.203125 -0.890625 1.859375q-0.875 0.640625 -2.609375 0.640625l-4.296875 0l0 -9.328125l4.03125 0q1.5625 0 2.421875 0.625q0.859375 0.625 0.859375 1.765625q0 0.78125 -0.390625 1.328125q-0.375 0.53125 -1.046875 0.796875zm-4.890625 -3.703125l0 3.390625l2.984375 0q1.125 0 1.734375 -0.4375q0.625 -0.4375 0.625 -1.265625q0 -0.828125 -0.625 -1.25q-0.609375 -0.4375 -1.734375 -0.4375l-2.984375 0zm3.296875 7.703125q1.25 0 1.890625 -0.421875q0.640625 -0.4375 0.640625 -1.34375q0 -1.734375 -2.53125 -1.734375l-3.296875 0l0 3.5l3.296875 0zm9.533752 0.890625q-1.8125 0 -2.828125 -1.03125q-1.015625 -1.046875 -1.015625 -3.03125l0 -5.34375l0.984375 0l0 5.296875q0 1.625 0.734375 2.4375q0.734375 0.796875 2.125 0.796875q1.390625 0 2.125 -0.796875q0.734375 -0.8125 0.734375 -2.4375l0 -5.296875l0.96875 0l0 5.34375q0 1.984375 -1.015625 3.03125q-1.0 1.03125 -2.8125 1.03125zm6.790222 -9.40625l3.796875 0q1.484375 0 2.609375 0.59375q1.140625 0.59375 1.765625 1.65625q0.625 1.046875 0.625 2.40625q0 1.359375 -0.625 2.421875q-0.625 1.0625 -1.765625 1.65625q-1.125 0.59375 -2.609375 0.59375l-3.796875 0l0 -9.328125zm3.75 8.46875q1.21875 0 2.140625 -0.484375q0.921875 -0.484375 1.421875 -1.34375q0.515625 -0.859375 0.515625 -1.984375q0 -1.109375 -0.515625 -1.96875q-0.5 -0.859375 -1.421875 -1.34375q-0.921875 -0.5 -2.140625 -0.5l-2.765625 0l0 7.625l2.765625 0zm12.984985 -1.640625l-5.203125 0l-1.125 2.5l-1.015625 0l4.265625 -9.328125l0.96875 0l4.265625 9.328125l-1.046875 0l-1.109375 -2.5zm-0.359375 -0.796875l-2.25 -5.0l-2.234375 5.0l4.484375 0zm7.5562744 -6.03125q1.78125 0 2.796875 0.859375q1.015625 0.84375 1.015625 2.34375q0 1.484375 -1.015625 2.328125q-1.015625 0.84375 -2.796875 0.84375l-2.515625 0l0 2.953125l-0.984375 0l0 -9.328125l3.5 0zm-0.03125 5.515625q1.390625 0 2.125 -0.609375q0.734375 -0.609375 0.734375 -1.703125q0 -1.140625 -0.734375 -1.75q-0.734375 -0.609375 -2.125 -0.609375l-2.484375 0l0 4.671875l2.484375 0zm12.561218 2.953125l0 0.859375l-6.59375 0l0 -9.328125l6.40625 0l0 0.84375l-5.421875 0l0 3.328125l4.828125 0l0 0.84375l-4.828125 0l0 3.453125l5.609375 0zm4.900879 0.9375q-1.046875 0 -2.0 -0.328125q-0.953125 -0.34375 -1.46875 -0.890625l0.390625 -0.75q0.5 0.5 1.34375 0.8125q0.84375 0.3125 1.734375 0.3125q1.25 0 1.875 -0.453125q0.625 -0.453125 0.625 -1.1875q0 -0.5625 -0.34375 -0.890625q-0.328125 -0.34375 -0.828125 -0.515625q-0.484375 -0.1875 -1.375 -0.40625q-1.046875 -0.265625 -1.671875 -0.5q-0.625 -0.25 -1.078125 -0.75q-0.4375 -0.515625 -0.4375 -1.375q0 -0.71875 0.359375 -1.296875q0.375 -0.578125 1.140625 -0.921875q0.78125 -0.34375 1.9375 -0.34375q0.796875 0 1.5625 0.21875q0.765625 0.21875 1.328125 0.609375l-0.34375 0.78125q-0.578125 -0.390625 -1.25 -0.578125q-0.65625 -0.1875 -1.296875 -0.1875q-1.234375 0 -1.859375 0.46875q-0.609375 0.46875 -0.609375 1.21875q0 0.5625 0.328125 0.90625q0.34375 0.328125 0.859375 0.515625q0.515625 0.171875 1.375 0.390625q1.03125 0.25 1.65625 0.5q0.640625 0.25 1.078125 0.75q0.453125 0.5 0.453125 1.34375q0 0.703125 -0.390625 1.296875q-0.375 0.578125 -1.171875 0.921875q-0.78125 0.328125 -1.921875 0.328125z" fill-rule="nonzero"/><path fill="#000000" d="m666.88904 490.39847l-2.953125 0l0 -0.78125l6.796875 0l0 0.78125l-2.953125 0l0 7.625l-0.890625 0l0 -7.625z" fill-rule="nonzero"/><path fill="#000000" fill-opacity="0.0" d="m561.5648 315.18524l56.87799 0l0 41.799072l-56.87799 0z" fill-rule="evenodd"/><path fill="#000000" d="m582.87573 334.1271l0 1.578125l-6.359375 0l0 -1.265625l3.25 -3.046875q0.515625 -0.5 0.6875 -0.84375q0.1875 -0.359375 0.1875 -0.71875q0 -0.5 -0.34375 -0.765625q-0.34375 -0.265625 -1.0 -0.265625q-0.5625 0 -1.0 0.21875q-0.4375 0.203125 -0.75 0.609375l-1.40625 -0.90625q0.484375 -0.734375 1.34375 -1.140625q0.875 -0.421875 1.984375 -0.421875q0.9375 0 1.640625 0.3125q0.703125 0.296875 1.09375 0.859375q0.390625 0.5625 0.390625 1.3125q0 0.6875 -0.296875 1.296875q-0.28125 0.59375 -1.109375 1.359375l-1.9375 1.828125l3.625 0zm4.3685303 1.71875q-1.03125 0 -1.859375 -0.515625q-0.8125 -0.515625 -1.28125 -1.484375q-0.453125 -0.984375 -0.453125 -2.34375q0 -1.359375 0.453125 -2.328125q0.46875 -0.984375 1.28125 -1.5q0.828125 -0.515625 1.859375 -0.515625q1.046875 0 1.859375 0.515625q0.828125 0.515625 1.28125 1.5q0.46875 0.96875 0.46875 2.328125q0 1.359375 -0.46875 2.34375q-0.453125 0.96875 -1.28125 1.484375q-0.8125 0.515625 -1.859375 0.515625zm0 -1.640625q0.78125 0 1.21875 -0.65625q0.4375 -0.65625 0.4375 -2.046875q0 -1.375 -0.4375 -2.03125q-0.4375 -0.671875 -1.21875 -0.671875q-0.75 0 -1.1875 0.671875q-0.4375 0.65625 -0.4375 2.03125q0 1.390625 0.4375 2.046875q0.4375 0.65625 1.1875 0.65625zm7.716675 -6.90625l0 8.40625l-1.9375 0l0 -6.84375l-1.6875 0l0 -1.5625l3.625 0zm7.2196655 3.984375q0.625 0.3125 0.953125 0.828125q0.328125 0.5 0.328125 1.15625q0 0.78125 -0.453125 1.375q-0.4375 0.578125 -1.25 0.890625q-0.796875 0.3125 -1.84375 0.3125q-1.0625 0 -1.859375 -0.3125q-0.796875 -0.3125 -1.234375 -0.890625q-0.4375 -0.59375 -0.4375 -1.375q0 -0.65625 0.328125 -1.15625q0.328125 -0.515625 0.9375 -0.828125q-0.46875 -0.28125 -0.71875 -0.71875q-0.25 -0.4375 -0.25 -1.0q0 -0.734375 0.40625 -1.265625q0.40625 -0.546875 1.140625 -0.84375q0.734375 -0.296875 1.6875 -0.296875q0.953125 0 1.6875 0.296875q0.75 0.296875 1.15625 0.84375q0.40625 0.53125 0.40625 1.265625q0 0.5625 -0.25 1.0q-0.25 0.4375 -0.734375 0.71875zm-2.265625 -2.6875q-0.59375 0 -0.953125 0.28125q-0.34375 0.28125 -0.34375 0.765625q0 0.484375 0.34375 0.765625q0.34375 0.265625 0.953125 0.265625q0.59375 0 0.953125 -0.265625q0.359375 -0.28125 0.359375 -0.765625q0 -0.484375 -0.359375 -0.765625q-0.359375 -0.28125 -0.953125 -0.28125zm0 5.828125q0.734375 0 1.15625 -0.328125q0.421875 -0.328125 0.421875 -0.890625q0 -0.546875 -0.421875 -0.875q-0.421875 -0.328125 -1.15625 -0.328125q-0.71875 0 -1.140625 0.328125q-0.421875 0.328125 -0.421875 0.875q0 0.5625 0.421875 0.890625q0.421875 0.328125 1.140625 0.328125z" fill-rule="nonzero"/><path fill="#000000" fill-opacity="0.0" d="m802.5697 332.89133l0 0c0 -21.369812 17.32367 -38.69345 38.69348 -38.69345l0 0c10.262146 0 20.104004 4.076599 27.360413 11.333038c7.2564087 7.256439 11.333069 17.098267 11.333069 27.360413l0 0c0 21.369812 -17.32367 38.69345 -38.69348 38.69345l0 0c-21.369812 0 -38.69348 -17.323639 -38.69348 -38.69345z" fill-rule="evenodd"/><path stroke="#a72a1e" stroke-width="4.0" stroke-linejoin="round" stroke-linecap="butt" d="m802.5697 332.89133l0 0c0 -21.369812 17.32367 -38.69345 38.69348 -38.69345l0 0c10.262146 0 20.104004 4.076599 27.360413 11.333038c7.2564087 7.256439 11.333069 17.098267 11.333069 27.360413l0 0c0 21.369812 -17.32367 38.69345 -38.69348 38.69345l0 0c-21.369812 0 -38.69348 -17.323639 -38.69348 -38.69345z" fill-rule="evenodd"/><path fill="#000000" fill-opacity="0.0" d="m729.9848 385.8401l222.55084 0l0 58.128082l-222.55084 0z" fill-rule="evenodd"/><path fill="#000000" d="m793.47394 429.1419q-1.140625 0 -2.1875 -0.359375q-1.046875 -0.375 -1.625 -0.984375l0.421875 -0.828125q0.5625 0.546875 1.484375 0.90625q0.921875 0.34375 1.90625 0.34375q1.375 0 2.0625 -0.5q0.6875 -0.515625 0.6875 -1.328125q0 -0.609375 -0.375 -0.96875q-0.375 -0.375 -0.921875 -0.5625q-0.53125 -0.203125 -1.5 -0.4375q-1.15625 -0.296875 -1.84375 -0.5625q-0.6875 -0.28125 -1.1875 -0.828125q-0.484375 -0.5625 -0.484375 -1.515625q0 -0.78125 0.40625 -1.40625q0.421875 -0.640625 1.265625 -1.015625q0.84375 -0.390625 2.109375 -0.390625q0.875 0 1.71875 0.25q0.84375 0.234375 1.46875 0.65625l-0.375 0.859375q-0.640625 -0.421875 -1.375 -0.625q-0.734375 -0.21875 -1.4375 -0.21875q-1.34375 0 -2.03125 0.515625q-0.671875 0.515625 -0.671875 1.34375q0 0.609375 0.359375 0.984375q0.375 0.375 0.9375 0.578125q0.578125 0.203125 1.53125 0.4375q1.125 0.265625 1.8125 0.546875q0.703125 0.265625 1.1875 0.8125q0.484375 0.546875 0.484375 1.484375q0 0.78125 -0.421875 1.421875q-0.421875 0.640625 -1.28125 1.015625q-0.859375 0.375 -2.125 0.375zm13.435486 -1.03125l0 0.9375l-7.25 0l0 -10.265625l7.03125 0l0 0.9375l-5.953125 0l0 3.65625l5.3125 0l0 0.921875l-5.3125 0l0 3.8125l6.171875 0zm2.5551147 -9.328125l1.078125 0l0 10.265625l-1.078125 0l0 -10.265625zm14.734863 4.96875q1.0 0.21875 1.546875 0.875q0.5625 0.65625 0.5625 1.6875q0 1.3125 -0.984375 2.03125q-0.96875 0.703125 -2.875 0.703125l-4.71875 0l0 -10.265625l4.421875 0q1.71875 0 2.65625 0.703125q0.953125 0.6875 0.953125 1.9375q0 0.859375 -0.421875 1.453125q-0.421875 0.59375 -1.140625 0.875zm-5.390625 -4.0625l0 3.71875l3.28125 0q1.234375 0 1.90625 -0.46875q0.6875 -0.484375 0.6875 -1.390625q0 -0.90625 -0.6875 -1.375q-0.671875 -0.484375 -1.90625 -0.484375l-3.28125 0zm3.625 8.46875q1.375 0 2.078125 -0.46875q0.703125 -0.46875 0.703125 -1.46875q0 -1.921875 -2.78125 -1.921875l-3.625 0l0 3.859375l3.625 0zm9.285278 0.96875q-1.125 0 -2.015625 -0.5q-0.890625 -0.515625 -1.40625 -1.40625q-0.515625 -0.890625 -0.515625 -2.03125q0 -1.125 0.515625 -2.015625q0.515625 -0.890625 1.40625 -1.390625q0.890625 -0.5 2.015625 -0.5q1.109375 0 2.0 0.5q0.890625 0.5 1.390625 1.390625q0.515625 0.890625 0.515625 2.015625q0 1.140625 -0.515625 2.03125q-0.5 0.890625 -1.390625 1.40625q-0.890625 0.5 -2.0 0.5zm0 -0.921875q0.8125 0 1.46875 -0.375q0.65625 -0.375 1.015625 -1.0625q0.359375 -0.6875 0.359375 -1.578125q0 -0.875 -0.359375 -1.5625q-0.359375 -0.6875 -1.015625 -1.0625q-0.65625 -0.375 -1.46875 -0.375q-0.828125 0 -1.484375 0.375q-0.640625 0.375 -1.015625 1.0625q-0.375 0.6875 -0.375 1.5625q0 0.890625 0.375 1.578125q0.375 0.6875 1.015625 1.0625q0.65625 0.375 1.484375 0.375zm9.189453 0.921875q-1.125 0 -2.015625 -0.5q-0.890625 -0.515625 -1.40625 -1.40625q-0.515625 -0.890625 -0.515625 -2.03125q0 -1.125 0.515625 -2.015625q0.515625 -0.890625 1.40625 -1.390625q0.890625 -0.5 2.015625 -0.5q1.109375 0 2.0 0.5q0.890625 0.5 1.390625 1.390625q0.515625 0.890625 0.515625 2.015625q0 1.140625 -0.515625 2.03125q-0.5 0.890625 -1.390625 1.40625q-0.890625 0.5 -2.0 0.5zm0 -0.921875q0.8125 0 1.46875 -0.375q0.65625 -0.375 1.015625 -1.0625q0.359375 -0.6875 0.359375 -1.578125q0 -0.875 -0.359375 -1.5625q-0.359375 -0.6875 -1.015625 -1.0625q-0.65625 -0.375 -1.46875 -0.375q-0.828125 0 -1.484375 0.375q-0.640625 0.375 -1.015625 1.0625q-0.375 0.6875 -0.375 1.5625q0 0.890625 0.375 1.578125q0.375 0.6875 1.015625 1.0625q0.65625 0.375 1.484375 0.375zm10.095764 0.375q-0.296875 0.265625 -0.734375 0.40625q-0.421875 0.140625 -0.890625 0.140625q-1.09375 0 -1.6875 -0.578125q-0.578125 -0.59375 -0.578125 -1.671875l0 -4.65625l-1.375 0l0 -0.875l1.375 0l0 -1.6875l1.046875 0l0 1.6875l2.34375 0l0 0.875l-2.34375 0l0 4.59375q0 0.703125 0.34375 1.0625q0.34375 0.34375 0.984375 0.34375q0.328125 0 0.625 -0.09375q0.296875 -0.109375 0.515625 -0.296875l0.375 0.75zm4.796814 0.546875q-1.140625 0 -2.046875 -0.5q-0.890625 -0.5 -1.40625 -1.390625q-0.515625 -0.90625 -0.515625 -2.046875q0 -1.125 0.515625 -2.015625q0.515625 -0.890625 1.40625 -1.390625q0.90625 -0.5 2.046875 -0.5q1.0 0 1.78125 0.390625q0.78125 0.390625 1.25 1.125l-0.78125 0.53125q-0.390625 -0.5625 -0.984375 -0.84375q-0.578125 -0.296875 -1.265625 -0.296875q-0.828125 0 -1.5 0.375q-0.65625 0.375 -1.03125 1.0625q-0.375 0.6875 -0.375 1.5625q0 0.90625 0.375 1.59375q0.375 0.671875 1.03125 1.046875q0.671875 0.375 1.5 0.375q0.6875 0 1.265625 -0.28125q0.59375 -0.28125 0.984375 -0.859375l0.78125 0.53125q-0.46875 0.75 -1.265625 1.140625q-0.78125 0.390625 -1.765625 0.390625zm7.751465 -7.84375q1.515625 0 2.3125 0.75q0.8125 0.75 0.8125 2.234375l0 4.78125l-1.0 0l0 -1.203125q-0.34375 0.609375 -1.03125 0.953125q-0.671875 0.328125 -1.609375 0.328125q-1.296875 0 -2.0625 -0.609375q-0.75 -0.625 -0.75 -1.640625q0 -0.984375 0.703125 -1.578125q0.71875 -0.609375 2.265625 -0.609375l2.453125 0l0 -0.46875q0 -0.984375 -0.5625 -1.5q-0.5625 -0.53125 -1.625 -0.53125q-0.734375 0 -1.40625 0.25q-0.671875 0.234375 -1.15625 0.65625l-0.46875 -0.78125q0.578125 -0.484375 1.390625 -0.75q0.828125 -0.28125 1.734375 -0.28125zm-0.359375 7.015625q0.875 0 1.5 -0.390625q0.640625 -0.40625 0.953125 -1.171875l0 -1.265625l-2.421875 0q-1.984375 0 -1.984375 1.375q0 0.671875 0.515625 1.0625q0.515625 0.390625 1.4375 0.390625zm15.928467 -7.015625q1.453125 0 2.28125 0.84375q0.828125 0.828125 0.828125 2.453125l0 4.46875l-1.046875 0l0 -4.375q0 -1.1875 -0.578125 -1.8125q-0.578125 -0.640625 -1.625 -0.640625q-1.203125 0 -1.890625 0.75q-0.6875 0.734375 -0.6875 2.03125l0 4.046875l-1.046875 0l0 -4.375q0 -1.1875 -0.578125 -1.8125q-0.578125 -0.640625 -1.640625 -0.640625q-1.1875 0 -1.890625 0.75q-0.703125 0.734375 -0.703125 2.03125l0 4.046875l-1.03125 0l0 -7.703125l1.0 0l0 1.40625q0.40625 -0.703125 1.140625 -1.078125q0.734375 -0.390625 1.6875 -0.390625q0.96875 0 1.671875 0.40625q0.71875 0.40625 1.0625 1.21875q0.421875 -0.765625 1.21875 -1.1875q0.8125 -0.4375 1.828125 -0.4375zm9.909729 0q1.078125 0 1.953125 0.5q0.890625 0.484375 1.390625 1.375q0.5 0.890625 0.5 2.03125q0 1.15625 -0.5 2.0625q-0.5 0.890625 -1.375 1.390625q-0.875 0.484375 -1.96875 0.484375q-0.9375 0 -1.703125 -0.390625q-0.75 -0.390625 -1.234375 -1.140625l0 4.296875l-1.03125 0l0 -10.546875l1.0 0l0 1.515625q0.46875 -0.765625 1.234375 -1.171875q0.765625 -0.40625 1.734375 -0.40625zm-0.078125 6.921875q0.8125 0 1.46875 -0.375q0.65625 -0.375 1.03125 -1.0625q0.375 -0.6875 0.375 -1.578125q0 -0.875 -0.375 -1.546875q-0.375 -0.6875 -1.03125 -1.0625q-0.65625 -0.390625 -1.46875 -0.390625q-0.8125 0 -1.46875 0.390625q-0.65625 0.375 -1.03125 1.0625q-0.359375 0.671875 -0.359375 1.546875q0 0.890625 0.359375 1.578125q0.375 0.6875 1.03125 1.0625q0.65625 0.375 1.46875 0.375z" fill-rule="nonzero"/><path fill="#000000" fill-opacity="0.0" d="m729.9878 458.22375l222.55078 0l0 96.02069l-222.55078 0z" fill-rule="evenodd"/><path fill="#000000" d="m776.9458 475.35187l0.9375 0l0 3.5625q-0.640625 0.578125 -1.546875 0.890625q-0.890625 0.296875 -1.875 0.296875q-1.390625 0 -2.515625 -0.609375q-1.125 -0.609375 -1.765625 -1.6875q-0.640625 -1.09375 -0.640625 -2.453125q0 -1.34375 0.640625 -2.421875q0.640625 -1.09375 1.765625 -1.703125q1.125 -0.609375 2.53125 -0.609375q1.0625 0 1.953125 0.34375q0.90625 0.328125 1.515625 1.0l-0.609375 0.625q-1.109375 -1.09375 -2.8125 -1.09375q-1.140625 0 -2.0625 0.5q-0.90625 0.5 -1.421875 1.390625q-0.515625 0.890625 -0.515625 1.96875q0 1.09375 0.515625 1.984375q0.515625 0.875 1.421875 1.390625q0.90625 0.5 2.046875 0.5q1.4375 0 2.4375 -0.71875l0 -3.15625zm10.318237 3.8125l0 0.859375l-6.59375 0l0 -9.328125l6.40625 0l0 0.84375l-5.421875 0l0 3.328125l4.828125 0l0 0.84375l-4.828125 0l0 3.453125l5.609375 0zm10.119568 -8.46875l0 9.328125l-0.8125 0l-6.0 -7.578125l0 7.578125l-0.984375 0l0 -9.328125l0.8125 0l6.015625 7.5625l0 -7.5625l0.96875 0zm9.632629 8.46875l0 0.859375l-6.59375 0l0 -9.328125l6.40625 0l0 0.84375l-5.421875 0l0 3.328125l4.828125 0l0 0.84375l-4.828125 0l0 3.453125l5.609375 0zm8.697754 0.859375l-2.140625 -3.0q-0.359375 0.046875 -0.734375 0.046875l-2.515625 0l0 2.953125l-0.984375 0l0 -9.328125l3.5 0q1.78125 0 2.796875 0.859375q1.015625 0.84375 1.015625 2.34375q0 1.09375 -0.5625 1.84375q-0.546875 0.75 -1.578125 1.078125l2.28125 3.203125l-1.078125 0zm-2.90625 -3.796875q1.390625 0 2.125 -0.609375q0.734375 -0.625 0.734375 -1.71875q0 -1.140625 -0.734375 -1.75q-0.734375 -0.609375 -2.125 -0.609375l-2.484375 0l0 4.6875l2.484375 0zm12.026794 1.296875l-5.203125 0l-1.125 2.5l-1.015625 0l4.265625 -9.328125l0.96875 0l4.265625 9.328125l-1.046875 0l-1.109375 -2.5zm-0.359375 -0.796875l-2.25 -5.0l-2.234375 5.0l4.484375 0zm4.0562134 -6.03125l0.984375 0l0 8.46875l5.234375 0l0 0.859375l-6.21875 0l0 -9.328125zm17.2016 6.828125l-5.203125 0l-1.125 2.5l-1.015625 0l4.265625 -9.328125l0.96875 0l4.265625 9.328125l-1.046875 0l-1.109375 -2.5zm-0.359375 -0.796875l-2.25 -5.0l-2.234375 5.0l4.484375 0zm6.6343384 3.375q-1.046875 0 -2.0 -0.328125q-0.953125 -0.34375 -1.46875 -0.890625l0.390625 -0.75q0.5 0.5 1.34375 0.8125q0.84375 0.3125 1.734375 0.3125q1.25 0 1.875 -0.453125q0.625 -0.453125 0.625 -1.1875q0 -0.5625 -0.34375 -0.890625q-0.328125 -0.34375 -0.828125 -0.515625q-0.484375 -0.1875 -1.375 -0.40625q-1.046875 -0.265625 -1.671875 -0.5q-0.625 -0.25 -1.078125 -0.75q-0.4375 -0.515625 -0.4375 -1.375q0 -0.71875 0.359375 -1.296875q0.375 -0.578125 1.140625 -0.921875q0.78125 -0.34375 1.9375 -0.34375q0.796875 0 1.5625 0.21875q0.765625 0.21875 1.328125 0.609375l-0.34375 0.78125q-0.578125 -0.390625 -1.25 -0.578125q-0.65625 -0.1875 -1.296875 -0.1875q-1.234375 0 -1.859375 0.46875q-0.609375 0.46875 -0.609375 1.21875q0 0.5625 0.328125 0.90625q0.34375 0.328125 0.859375 0.515625q0.515625 0.171875 1.375 0.390625q1.03125 0.25 1.65625 0.5q0.640625 0.25 1.078125 0.75q0.453125 0.5 0.453125 1.34375q0 0.703125 -0.390625 1.296875q-0.375 0.578125 -1.171875 0.921875q-0.78125 0.328125 -1.921875 0.328125zm8.196777 0q-1.046875 0 -2.0 -0.328125q-0.953125 -0.34375 -1.46875 -0.890625l0.390625 -0.75q0.5 0.5 1.34375 0.8125q0.84375 0.3125 1.734375 0.3125q1.25 0 1.875 -0.453125q0.625 -0.453125 0.625 -1.1875q0 -0.5625 -0.34375 -0.890625q-0.328125 -0.34375 -0.828125 -0.515625q-0.484375 -0.1875 -1.375 -0.40625q-1.046875 -0.265625 -1.671875 -0.5q-0.625 -0.25 -1.078125 -0.75q-0.4375 -0.515625 -0.4375 -1.375q0 -0.71875 0.359375 -1.296875q0.375 -0.578125 1.140625 -0.921875q0.78125 -0.34375 1.9375 -0.34375q0.796875 0 1.5625 0.21875q0.765625 0.21875 1.328125 0.609375l-0.34375 0.78125q-0.578125 -0.390625 -1.25 -0.578125q-0.65625 -0.1875 -1.296875 -0.1875q-1.234375 0 -1.859375 0.46875q-0.609375 0.46875 -0.609375 1.21875q0 0.5625 0.328125 0.90625q0.34375 0.328125 0.859375 0.515625q0.515625 0.171875 1.375 0.390625q1.03125 0.25 1.65625 0.5q0.640625 0.25 1.078125 0.75q0.453125 0.5 0.453125 1.34375q0 0.703125 -0.390625 1.296875q-0.375 0.578125 -1.171875 0.921875q-0.78125 0.328125 -1.921875 0.328125zm12.212402 -0.9375l0 0.859375l-6.59375 0l0 -9.328125l6.40625 0l0 0.84375l-5.421875 0l0 3.328125l4.828125 0l0 0.84375l-4.828125 0l0 3.453125l5.609375 0zm12.010193 -8.46875l0 9.328125l-0.9375 0l0 -7.46875l-3.671875 6.28125l-0.46875 0l-3.65625 -6.234375l0 7.421875l-0.953125 0l0 -9.328125l0.8125 0l4.0625 6.921875l4.0 -6.921875l0.8125 0zm8.9158325 4.515625q0.921875 0.203125 1.421875 0.796875q0.5 0.59375 0.5 1.515625q0 1.203125 -0.890625 1.859375q-0.875 0.640625 -2.609375 0.640625l-4.296875 0l0 -9.328125l4.03125 0q1.5625 0 2.421875 0.625q0.859375 0.625 0.859375 1.765625q0 0.78125 -0.390625 1.328125q-0.375 0.53125 -1.046875 0.796875zm-4.890625 -3.703125l0 3.390625l2.984375 0q1.125 0 1.734375 -0.4375q0.625 -0.4375 0.625 -1.265625q0 -0.828125 -0.625 -1.25q-0.609375 -0.4375 -1.734375 -0.4375l-2.984375 0zm3.296875 7.703125q1.25 0 1.890625 -0.421875q0.640625 -0.4375 0.640625 -1.34375q0 -1.734375 -2.53125 -1.734375l-3.296875 0l0 3.5l3.296875 0zm5.7681274 -8.515625l0.984375 0l0 8.46875l5.234375 0l0 0.859375l-6.21875 0l0 -9.328125zm10.066711 6.109375l0 3.21875l-0.96875 0l0 -3.21875l-3.734375 -6.109375l1.046875 0l3.203125 5.234375l3.203125 -5.234375l0.984375 0l-3.734375 6.109375zm4.6864624 1.828125q0.3125 0 0.5 0.21875q0.203125 0.203125 0.203125 0.5q0 0.171875 -0.046875 0.359375q-0.03125 0.171875 -0.125 0.421875l-0.5625 1.84375l-0.640625 0l0.453125 -1.9375q-0.21875 -0.0625 -0.359375 -0.234375q-0.125 -0.1875 -0.125 -0.453125q0 -0.296875 0.203125 -0.5q0.203125 -0.21875 0.5 -0.21875z" fill-rule="nonzero"/><path fill="#000000" d="m811.42456 488.69562l0.984375 0l0 8.46875l5.234375 0l0 0.859375l-6.21875 0l0 -9.328125zm11.741699 9.40625q-1.375 0 -2.515625 -0.609375q-1.125 -0.625 -1.765625 -1.703125q-0.625 -1.078125 -0.625 -2.4375q0 -1.34375 0.625 -2.421875q0.640625 -1.078125 1.765625 -1.6875q1.140625 -0.625 2.515625 -0.625q1.390625 0 2.5 0.609375q1.109375 0.609375 1.75 1.703125q0.640625 1.078125 0.640625 2.421875q0 1.359375 -0.640625 2.453125q-0.640625 1.078125 -1.75 1.6875q-1.109375 0.609375 -2.5 0.609375zm0 -0.875q1.109375 0 2.0 -0.5q0.890625 -0.5 1.390625 -1.390625q0.515625 -0.890625 0.515625 -1.984375q0 -1.078125 -0.515625 -1.96875q-0.5 -0.890625 -1.390625 -1.390625q-0.890625 -0.5 -2.0 -0.5q-1.109375 0 -2.015625 0.5q-0.890625 0.5 -1.40625 1.390625q-0.5 0.890625 -0.5 1.96875q0 1.09375 0.5 1.984375q0.515625 0.890625 1.40625 1.390625q0.90625 0.5 2.015625 0.5zm14.901001 -8.53125l0 9.328125l-0.8125 0l-6.0 -7.578125l0 7.578125l-0.984375 0l0 -9.328125l0.8125 0l6.015625 7.5625l0 -7.5625l0.96875 0zm3.0388184 0l3.796875 0q1.484375 0 2.609375 0.59375q1.140625 0.59375 1.765625 1.65625q0.625 1.046875 0.625 2.40625q0 1.359375 -0.625 2.421875q-0.625 1.0625 -1.765625 1.65625q-1.125 0.59375 -2.609375 0.59375l-3.796875 0l0 -9.328125zm3.75 8.46875q1.21875 0 2.140625 -0.484375q0.921875 -0.484375 1.421875 -1.34375q0.515625 -0.859375 0.515625 -1.984375q0 -1.109375 -0.515625 -1.96875q-0.5 -0.859375 -1.421875 -1.34375q-0.921875 -0.5 -2.140625 -0.5l-2.765625 0l0 7.625l2.765625 0zm11.337158 0.9375q-1.375 0 -2.515625 -0.609375q-1.125 -0.625 -1.765625 -1.703125q-0.625 -1.078125 -0.625 -2.4375q0 -1.34375 0.625 -2.421875q0.640625 -1.078125 1.765625 -1.6875q1.140625 -0.625 2.515625 -0.625q1.390625 0 2.5 0.609375q1.109375 0.609375 1.75 1.703125q0.640625 1.078125 0.640625 2.421875q0 1.359375 -0.640625 2.453125q-0.640625 1.078125 -1.75 1.6875q-1.109375 0.609375 -2.5 0.609375zm0 -0.875q1.109375 0 2.0 -0.5q0.890625 -0.5 1.390625 -1.390625q0.515625 -0.890625 0.515625 -1.984375q0 -1.078125 -0.515625 -1.96875q-0.5 -0.890625 -1.390625 -1.390625q-0.890625 -0.5 -2.0 -0.5q-1.109375 0 -2.015625 0.5q-0.890625 0.5 -1.40625 1.390625q-0.5 0.890625 -0.5 1.96875q0 1.09375 0.5 1.984375q0.515625 0.890625 1.40625 1.390625q0.90625 0.5 2.015625 0.5zm14.901001 -8.53125l0 9.328125l-0.8125 0l-6.0 -7.578125l0 7.578125l-0.984375 0l0 -9.328125l0.8125 0l6.015625 7.5625l0 -7.5625l0.96875 0z" fill-rule="nonzero"/><path fill="#000000" fill-opacity="0.0" d="m812.82416 315.18524l56.87805 0l0 41.799072l-56.87805 0z" fill-rule="evenodd"/><path fill="#000000" d="m834.5551 334.1271l0 1.578125l-6.359375 0l0 -1.265625l3.25 -3.046875q0.515625 -0.5 0.6875 -0.84375q0.1875 -0.359375 0.1875 -0.71875q0 -0.5 -0.34375 -0.765625q-0.34375 -0.265625 -1.0 -0.265625q-0.5625 0 -1.0 0.21875q-0.4375 0.203125 -0.75 0.609375l-1.40625 -0.90625q0.484375 -0.734375 1.34375 -1.140625q0.875 -0.421875 1.984375 -0.421875q0.9375 0 1.640625 0.3125q0.703125 0.296875 1.09375 0.859375q0.390625 0.5625 0.390625 1.3125q0 0.6875 -0.296875 1.296875q-0.28125 0.59375 -1.109375 1.359375l-1.9375 1.828125l3.625 0zm4.3685303 1.71875q-1.03125 0 -1.859375 -0.515625q-0.8125 -0.515625 -1.28125 -1.484375q-0.453125 -0.984375 -0.453125 -2.34375q0 -1.359375 0.453125 -2.328125q0.46875 -0.984375 1.28125 -1.5q0.828125 -0.515625 1.859375 -0.515625q1.046875 0 1.859375 0.515625q0.828125 0.515625 1.28125 1.5q0.46875 0.96875 0.46875 2.328125q0 1.359375 -0.46875 2.34375q-0.453125 0.96875 -1.28125 1.484375q-0.8125 0.515625 -1.859375 0.515625zm0 -1.640625q0.78125 0 1.21875 -0.65625q0.4375 -0.65625 0.4375 -2.046875q0 -1.375 -0.4375 -2.03125q-0.4375 -0.671875 -1.21875 -0.671875q-0.75 0 -1.1875 0.671875q-0.4375 0.65625 -0.4375 2.03125q0 1.390625 0.4375 2.046875q0.4375 0.65625 1.1875 0.65625zm10.76355 -0.078125l0 1.578125l-6.359375 0l0 -1.265625l3.25 -3.046875q0.515625 -0.5 0.6875 -0.84375q0.1875 -0.359375 0.1875 -0.71875q0 -0.5 -0.34375 -0.765625q-0.34375 -0.265625 -1.0 -0.265625q-0.5625 0 -1.0 0.21875q-0.4375 0.203125 -0.75 0.609375l-1.40625 -0.90625q0.484375 -0.734375 1.34375 -1.140625q0.875 -0.421875 1.984375 -0.421875q0.9375 0 1.640625 0.3125q0.703125 0.296875 1.09375 0.859375q0.390625 0.5625 0.390625 1.3125q0 0.6875 -0.296875 1.296875q-0.28125 0.59375 -1.109375 1.359375l-1.9375 1.828125l3.625 0zm4.033142 -6.828125l0 8.40625l-1.9375 0l0 -6.84375l-1.6875 0l0 -1.5625l3.625 0z" fill-rule="nonzero"/><path fill="#a72a1e" d="m429.91998 334.51233l0 0c0 -1.330719 1.0787354 -2.4094543 2.4094543 -2.4094543l72.566925 0c0.63900757 0 1.2518616 0.2538452 1.7037354 0.7056885c0.45184326 0.45187378 0.705719 1.0647278 0.705719 1.7037659l0 0l0 0c0 1.3306885 -1.0787659 2.4094238 -2.4094543 2.4094238l-72.566925 0l0 0c-1.330719 0 -2.4094543 -1.0787354 -2.4094543 -2.4094238z" fill-rule="evenodd"/><path stroke="#a72a1e" stroke-width="1.0" stroke-linejoin="round" stroke-linecap="butt" d="m429.91998 334.51233l0 0c0 -1.330719 1.0787354 -2.4094543 2.4094543 -2.4094543l72.566925 0c0.63900757 0 1.2518616 0.2538452 1.7037354 0.7056885c0.45184326 0.45187378 0.705719 1.0647278 0.705719 1.7037659l0 0l0 0c0 1.3306885 -1.0787659 2.4094238 -2.4094543 2.4094238l-72.566925 0l0 0c-1.330719 0 -2.4094543 -1.0787354 -2.4094543 -2.4094238z" fill-rule="evenodd"/><path fill="#a72a1e" d="m682.1079 334.51233l0 0c0 -1.330719 1.0787354 -2.4094543 2.4094238 -2.4094543l72.566956 0c0.63897705 0 1.251831 0.2538452 1.7037354 0.7056885c0.45184326 0.45187378 0.7056885 1.0647278 0.7056885 1.7037659l0 0l0 0c0 1.3306885 -1.0787354 2.4094238 -2.4094238 2.4094238l-72.566956 0l0 0c-1.3306885 0 -2.4094238 -1.0787354 -2.4094238 -2.4094238z" fill-rule="evenodd"/><path stroke="#a72a1e" stroke-width="1.0" stroke-linejoin="round" stroke-linecap="butt" d="m682.1079 334.51233l0 0c0 -1.330719 1.0787354 -2.4094543 2.4094238 -2.4094543l72.566956 0c0.63897705 0 1.251831 0.2538452 1.7037354 0.7056885c0.45184326 0.45187378 0.7056885 1.0647278 0.7056885 1.7037659l0 0l0 0c0 1.3306885 -1.0787354 2.4094238 -2.4094238 2.4094238l-72.566956 0l0 0c-1.3306885 0 -2.4094238 -1.0787354 -2.4094238 -2.4094238z" fill-rule="evenodd"/></g></svg>